<svg id="Layer_1" data-name="Layer 1" xmlns="http://www.w3.org/2000/svg" viewBox="0 0 764.05 130.72"><defs><style>.cls-1{fill:#f1f2f2;fill-rule:evenodd;}</style></defs><path class="cls-1" d="M781.61,63.19H725.56c7.36-27.67,14-51.14,14-51.14s-25.22,27-47.64,51.14H469.83c-1.4,0-1.4.71,0,.71.7,0,217.9,3.85,217.9,3.85-17.52,18.57-27,29.07-27.33,29.43-.7.7,0,1,.7.35.35-.35,13-11.91,30.83-29.78l27.68.35c-1.76,8.06-3.16,15.41-5.26,24.17-34,18.22-89.33,48-89.33,48-.7.36-.35,1.06.35.7.35-.34,51.85-26.27,87.93-44.48-5.95,27-9.81,45.54-9.81,45.89-.35.35.35.7.7,0,0-.35,5.26-18.92,13-47.65,32.23-16.46,64.46-31.53,64.46-31.53Zm-85.12,0c16.81-16.46,30.82-29.77,30.82-29.77S724.86,45,720.66,63.19Zm27.67,4.91,33.63.7S741,77.91,718.21,90.17c2.1-7.71,3.85-14.36,5.95-22.07Z" transform="translate(-17.57 -12.05)"/><polygon class="cls-1" points="5.25 67.61 15.06 67.61 11.21 85.83 20.32 85.83 18.92 92.83 0 92.83 5.25 67.61 5.25 67.61"/><path class="cls-1" d="M71.87,79.31c8.75,0,11.91,5.25,10.16,13s-7,13-15.77,13c-8.41,0-11.56-5.25-9.81-13,1.4-7.71,7-13,15.42-13ZM67.66,98.93c1.76,0,2.81-1.05,4.21-6.66,1-5.6.35-6.65-1.4-6.65-1.41,0-2.81,1-3.86,6.65-1.4,5.61-.35,6.66,1,6.66Z" transform="translate(-17.57 -12.05)"/><path class="cls-1" d="M123.36,95.42c-1.4,7-7.35,9.81-13.66,9.81-8.76,0-11.56-5.25-9.81-13,1.4-8.06,7-13,15.42-13,6.3,0,11.21,2.45,9.46,9.81h-9.11c.7-2.8-.35-3.5-1.4-3.5-2.81,0-3.51,2.8-4.21,6.65-1,3.85-1.4,6.66,1,6.66,1.4,0,2.45-.7,3.16-3.51Z" transform="translate(-17.57 -12.05)"/><polygon class="cls-1" points="130.67 67.61 140.13 67.61 138.03 78.47 138.03 78.47 145.38 67.61 155.89 67.61 146.78 79.52 151.34 92.83 140.83 92.83 137.32 81.62 137.32 81.62 134.87 92.83 125.42 92.83 130.67 67.61 130.67 67.61"/><polygon class="cls-1" points="186.72 83.38 182.52 83.38 180.76 92.83 170.96 92.83 176.21 67.61 186.02 67.61 184.27 76.02 188.47 76.02 190.22 67.61 200.03 67.61 194.78 92.83 184.97 92.83 186.72 83.38 186.72 83.38"/><polygon class="cls-1" points="222.45 67.61 241.37 67.61 239.97 74.27 230.51 74.27 229.81 77.07 238.57 77.07 237.17 83.38 228.41 83.38 227.71 86.18 237.52 86.18 236.11 92.83 216.85 92.83 222.45 67.61 222.45 67.61"/><polygon class="cls-1" points="264.14 67.61 283.06 67.61 281.66 74.27 272.2 74.27 271.5 77.07 280.25 77.07 279.2 83.38 270.1 83.38 269.75 86.18 279.56 86.18 278.15 92.83 258.88 92.83 264.14 67.61 264.14 67.61"/><path class="cls-1" d="M323.4,79.66h11.91c9.81,0,11.91,5.6,10.51,13a15.44,15.44,0,0,1-15.42,12.26H318.14l5.26-25.22ZM329,98.93h1.05c1.75,0,2.8-.35,3.5-1.4,1.06-1,1.41-2.81,2.11-5.26.35-2.45.7-4.2,0-5.25-.35-1-1.05-1.4-2.81-1.4h-.7L329,98.93Z" transform="translate(-17.57 -12.05)"/><polygon class="cls-1" points="392.71 74.97 392.71 74.97 385.35 92.83 376.24 92.83 376.59 74.97 376.59 74.97 372.74 92.83 364.33 92.83 369.59 67.61 383.25 67.61 382.9 82.67 382.9 82.67 388.85 67.61 402.52 67.61 397.26 92.83 388.85 92.83 392.71 74.97 392.71 74.97"/><path class="cls-1" d="M447.41,79.66H460l2.8,25.22H452.66l-.35-4.2h-7l-1.75,4.2H434.1l13.31-25.22Zm4.9,15.06V85.26h0l-4.2,9.46Z" transform="translate(-17.57 -12.05)"/><path class="cls-1" d="M489.45,79.66h14.71c5.25,0,8.06,1.75,7,6.31-.7,3.15-2.1,5.25-6.31,6v.35c2.45,0,3.51,1,3.51,3.15.34,2.11-.71,5.61-.36,9.46h-9.46a26,26,0,0,1,.36-7.35c0-1-.7-1.76-2.11-1.76h-1.4l-1.75,9.11h-9.81l5.61-25.22Zm8.05,10.51c2.11,0,3.51-.7,3.86-2.45s-.7-2.1-2.81-2.1h-.7l-1.05,4.55Z" transform="translate(-17.57 -12.05)"/><polygon class="cls-1" points="520.92 74.62 514.97 74.62 516.37 67.61 538.44 67.61 537.04 74.62 531.08 74.62 527.23 92.83 517.07 92.83 520.92 74.62 520.92 74.62"/><polygon class="cls-1" points="560.51 67.61 570.32 67.61 565.07 92.83 555.25 92.83 560.51 67.61 560.51 67.61"/><polygon class="cls-1" points="593.79 67.61 605.7 67.61 607.8 82.67 607.8 82.67 611.31 67.61 619.01 67.61 613.76 92.83 601.85 92.83 600.1 77.42 599.75 77.42 596.59 92.83 588.54 92.83 593.79 67.61 593.79 67.61"/></svg>