<svg id="Layer_1" data-name="Layer 1" xmlns="http://www.w3.org/2000/svg" viewBox="0 0 1004.41 1004.41"><defs><style>.cls-1{fill:#febc12;}.cls-2{fill:#282828;}.cls-3{font-size:97.13px;fill:#231f20;font-family:Consolas;}</style></defs><rect class="cls-1" width="1004.41" height="1004.41"/><rect class="cls-2" x="121.21" y="59.7" width="745.35" height="745.35"/><rect class="cls-1" x="156.67" y="99.3" width="161.63" height="161.63"/><rect class="cls-1" x="321.39" y="99.3" width="161.63" height="161.63"/><rect class="cls-1" x="504.35" y="99.3" width="161.63" height="161.63"/><rect class="cls-1" x="669.47" y="99.3" width="161.63" height="161.63"/><rect class="cls-1" x="156.67" y="263.93" width="161.63" height="161.63"/><rect class="cls-1" x="321.39" y="263.93" width="161.63" height="161.63"/><rect class="cls-1" x="504.35" y="263.93" width="161.63" height="161.63"/><rect class="cls-1" x="669.47" y="263.93" width="161.63" height="161.63"/><rect class="cls-1" x="504.35" y="438.75" width="161.63" height="161.63"/><rect class="cls-1" x="669.47" y="438.75" width="161.63" height="161.63"/><rect class="cls-1" x="504.35" y="603.37" width="161.63" height="161.63"/><rect class="cls-1" x="669.47" y="603.37" width="161.63" height="161.63"/><rect class="cls-1" x="156.67" y="439.18" width="161.63" height="161.63"/><rect class="cls-1" x="321.79" y="439.18" width="161.63" height="161.63"/><rect class="cls-1" x="156.67" y="603.81" width="161.63" height="161.63"/><rect class="cls-1" x="321.79" y="603.81" width="161.63" height="161.63"/><text class="cls-3" transform="translate(206.99 211.14)">1</text><text class="cls-3" transform="translate(722.9 381.13)">2</text><text class="cls-3" transform="translate(216.6 706.74)">4</text><text class="cls-3" transform="translate(561.47 557.24)">?</text></svg>