<svg id="Layer_1" data-name="Layer 1" xmlns="http://www.w3.org/2000/svg" viewBox="0 0 1000 1000"><defs><style>.cls-1{fill:#f1f2f2;}.cls-2{fill:#e04f58;}.cls-3{fill:#f0efef;}</style></defs><path class="cls-1" d="M499.94,24C237.86,24,24,237.86,24,500s213.82,476,475.9,476S976,762.14,976,500,762.15,24,499.94,24m56.87,565.51A54.69,54.69,0,0,0,568,583h15.83c8.43,0,9.71-2.42,11.59-7.08s-2.29-10.64-2.29-10.64l16.78-13a84.78,84.78,0,0,0,15-15.76A46.93,46.93,0,0,1,622,551.34c-2.76,7.42-13,26.09-28,38.21s-33.7,6.41-33.7,6.41S550.27,592.32,556.81,589.55ZM97.47,611.4A415.62,415.62,0,0,1,82.33,500c0-230.07,187.61-417.67,417.61-417.67S917.68,269.93,917.68,500c0,192.61-131.64,355.54-309.55,403.42-.9-47.56,8.74-137.28,12.7-157.39,3.36-17.18,23.79-118.46,35.65-145.22,20.35,8.15,39.08,12.13,61.12,13.48,20.82,1.21,37.33-12.13,47.64-27.83-17.25-23.66-18.8-26.22-22.64-47.24C806.42,526.14,846.85,497.1,868,435.78c20-57.89-5.53-130.8-54.18-162.07-17.12-11-47.18-11-47.18-11,28.65,15.09,59.31,57.48,54.79,90.77-8.82,65.5-41.71,84.1-119,96-4.91.74-24.86-21.83-50.94-35.59-29.58-15.49-66.92-22.3-98.93-19.67-14.69,1.28-19.81,1.68-26.89-2.43-47.37-27.36-98.58-40.9-177.76-21.42-25.07,6.13-66.58-4.05-84.38-29.73-24.86-36-20.08-79.85,9.71-105.66,33.83-29.17,96.57-36.32,125.28-44.07-38.62-5.72-68.34-2.77-106.75,4.92-91.92,18.33-133.16,91.24-118.2,176.09,14.09,80.05,59.24,87,107.82,102.49-9.7,13.07-37.8,14.49-70.82,12.94,6,30.79,29.72,43,59.77,47.17-18.4,19.14-56.74,35.38-93.8,50.27C159.22,591.78,99,602,99,602S98.23,605.73,97.47,611.4Zm276.72-98.19c.94.94,23.32,29.71,23.32,29.71a81.33,81.33,0,0,0-.95,12.13c0,6.54,4.65,10.25,10.25,12.13s8.42-.94,18.66,3.71a116.94,116.94,0,0,0,17.72,6.54S433,582.08,424.52,583s-22.23-.54-39-19.21S374.19,513.21,374.19,513.21Z"/><path class="cls-2" d="M511.48,635.27l7.16,2.06a.24.24,0,0,1,0,.29.24.24,0,0,1-.2,0c-.53,0-.93-.42-1.6-.52a4.33,4.33,0,0,0,1.91.52c1.44.22,2.83.63,4.25.92a5.63,5.63,0,0,0,.91.18.63.63,0,0,0,.32-.15l4.71.84q8.51,1.51,17.11,2.23a53.39,53.39,0,0,0,7.47-.36c1.85-.11,3.7-.27,5.55-.41a1.19,1.19,0,0,1,.7,0,8,8,0,0,1-2.15.88,100.6,100.6,0,0,1-10.89,3.2,2,2,0,0,0-1.26.85c-1.6,2.24-3.19,4.5-4.81,6.73A75.36,75.36,0,0,1,523.78,670,51.71,51.71,0,0,1,491,680a43.46,43.46,0,0,1-6.25-.56c.08-.08,0-.19-.24-.38a.7.7,0,0,1,.54-.08l-1.95-.3-8.72-2a3.06,3.06,0,0,0-1-.16.67.67,0,0,1-.48-.08c3.27.61,6.49,1.43,9.74,2.16.25.06.52.1.66.36-.2.34-.47.09-.68,0-2.89-.65-5.77-1.32-8.66-2a2.16,2.16,0,0,0-.76-.12l-.71-.17c-.31-.2-.7-.13-1-.34a60.57,60.57,0,0,1-8.74-3.3,63,63,0,0,1-23.18-17.55,60.8,60.8,0,0,1-12.7-26.39,1.17,1.17,0,0,0-.67-.9c-2.08-1.09-4.18-2.17-6.15-3.46.1-.4.53-.13.72-.35a.55.55,0,0,1,.31.05,3.56,3.56,0,0,0,.85.23c.72.12,1.35.54,2.08.63a5.76,5.76,0,0,0,1.23.21c1.61.57,3.3.86,4.92,1.41,2.41.81,4.94,1.19,7.36,1.95a9.11,9.11,0,0,0,2,.38,96.68,96.68,0,0,0,22.94,2.34.64.64,0,0,0,.82,0,45.59,45.59,0,0,0,8.23-1.17,12.8,12.8,0,0,1,4.31-.4c.35,0,.7.12,1.05.18a7.51,7.51,0,0,0,2.08.49,19.26,19.26,0,0,1,7,3.91c.59.48,1.13,1,1.67,1.55.22.21.35.23.55,0,3.06-3.88,7.2-4.28,11.67-3.59,2.22.53,4.51.73,6.68,1.42,1.46.47,3,.71,4.4,1.23A1.11,1.11,0,0,0,511.48,635.27Z"/><path class="cls-3" d="M459.63,654.12,456,652c-.51-.28-1.24-.21-1.48-.93-2.21-1.57-4.47-3.06-6.6-4.74a63.88,63.88,0,0,1-11-10.54c-.35-.45-.71-.88-1-1.36s-.63-1.1-1-1.72a3.15,3.15,0,0,1,1.64.51,185.77,185.77,0,0,0,19,7c2.43.75,4.86,1.51,7.35,2.09.4-.16.74.11,1.09.21,3.75,1,7.55,1.76,11.32,2.65a9.15,9.15,0,0,1,1.93.44,10,10,0,0,0,2.16.39,1.35,1.35,0,0,1,.94.17,17,17,0,0,0,2.55.44c.41,0,.78.22,1.2.17l.79.14c.35,0,.68.19,1,.13,2.61.51,5.27.75,7.91,1q4.65.5,9.31.7a3,3,0,0,0,.42,0,3.21,3.21,0,0,1,1.84.09c3.63.19,7.27.23,10.9.06a.85.85,0,0,1,.82,0,141.85,141.85,0,0,0,16.21-1.31l3.28-.47a31.71,31.71,0,0,1-3.07,2.65A64.4,64.4,0,0,1,498,663.62a62.07,62.07,0,0,1-21.89-2.44c-.39-.11-.78-.2-1.18-.3-.15,0-.28,0-.37-.11l-4.46-1.66a81.86,81.86,0,0,1-8.4-3.89A4,4,0,0,1,459.63,654.12Z"/></svg>