<svg id="Layer_1" data-name="Layer 1" xmlns="http://www.w3.org/2000/svg" viewBox="0 0 733.32 194.59"><defs><style>.cls-1{fill:#a9c6e8;}.cls-2{fill:#fff;}</style></defs><path class="cls-1" d="M579.31,197.42a38.2,38.2,0,0,0-4.62-.94,28.77,28.77,0,0,1-12.23-6c-.65-.55-.73-.91-.23-1.65,2.35-3.47,4.62-7,6.93-10.48.17-.26.36-.51.61-.86a16.67,16.67,0,0,0,2.84,3.42c3.77,3.24,8.26,4,13,3.7a17.12,17.12,0,0,0,3.89-.66,12,12,0,0,0,8.94-11.32c.15-2.38,0-4.77,0-7.17-.38-.07-.46.27-.61.45-4,4.87-9.26,7.17-15.45,7.53-16.6,1-27.16-11.59-29-23.59-2-13.39,5.11-26.81,17.34-31.29,10.38-3.81,20.62-3.58,29.88,3.21a27.62,27.62,0,0,1,11.85,23.17c0,9,.07,18,0,27.08-.14,11.84-6.2,19.35-17.06,23.46a32.34,32.34,0,0,1-7.21,1.7c-.25,0-.58-.11-.72.25H587a1.8,1.8,0,0,0-1.44,0h-3.84a2.43,2.43,0,0,0-1.68,0Z" transform="translate(-13.21 -2.82)"/><path class="cls-1" d="M746.53,171.77c-4.68,0-9.36,0-14,0-1.07,0-1.44-.27-1.29-1.32a13.44,13.44,0,0,0,0-1.81,33.79,33.79,0,0,1-7.44,3.19,29,29,0,0,1-36.33-23.75,29.58,29.58,0,0,1,24.84-33.76c7.13-1,14.21-.74,21,2.09,7.85,3.28,12.19,9.23,13.06,17.7.25.46-.09,1,.22,1.46Z" transform="translate(-13.21 -2.82)"/><path class="cls-1" d="M580,197.42a1.35,1.35,0,0,1,1.68,0Z" transform="translate(-13.21 -2.82)"/><path class="cls-1" d="M746.53,135.59c-.37-.45-.24-1-.22-1.46l.22,0Z" transform="translate(-13.21 -2.82)"/><path class="cls-1" d="M585.55,197.42c.48-.26,1-.44,1.44,0Z" transform="translate(-13.21 -2.82)"/><path class="cls-1" d="M71.71,58.1l17-8.82c4.5-2.34,9-4.65,13.48-7a2,2,0,0,1,1.9-.08l69.29,29c3.56,1.5,7,3.21,10.92,3.82a20.11,20.11,0,0,0,12.68-2c6.16-3.21,12.21-6.62,18.3-9.94a4.83,4.83,0,0,0,.43-.32L131.35,27.36c.23-.47.61-.53.91-.68,7.78-4.05,15.58-8.08,23.35-12.15a2.22,2.22,0,0,1,2.11-.11c21.19,9,42.41,17.86,63.58,26.86,4.21,1.79,8.42,3.47,13,3.94a36,36,0,0,0,18.15-2.76c3.55-1.51,7.07-3.1,10.46-4.93.41.34.25.72.25,1,0,10,0,20,0,30a1.57,1.57,0,0,1-.92,1.59c-2.37,1.31-4.75,2.62-7,4.06-4.9,3-10.19,3.5-15.71,2.56-7-1.19-13.4-4.08-19.74-7.12l-1.43-.69v2.23c0,7.38,0,14.77,0,22.16a1.55,1.55,0,0,1-.92,1.59q-8.4,4.61-16.75,9.3c-5.6,3.14-11.65,3.93-17.95,3.46-5.18-.4-9.92-2.28-14.63-4.29-2.74-1.17-5.51-2.28-8.41-3.49v1.43c0,8.11,0,16.21,0,24.32a1.54,1.54,0,0,1-.92,1.58c-6.24,3.48-12.43,7-18.68,10.51-3.88,2.15-8.15,2.35-12.46,2.07-7.42-.48-14.19-3.16-21-5.94q-46.06-19-92.21-37.76a1.56,1.56,0,0,1-1.19-1.72c.06-5.75,0-11.5,0-17.25a16.69,16.69,0,0,1,.43-4.28c1-3.86,3.37-5.8,7.35-6a9.46,9.46,0,0,1,4.09.71q42.77,18,85.54,36.06a29.18,29.18,0,0,0,7.94,1.65c8.13,1,16.08.2,23.54-3.32,5-2.34,9.76-5.07,14.89-7.77Z" transform="translate(-13.21 -2.82)"/><path class="cls-1" d="M636.57,176.65a13.64,13.64,0,0,0,7.64,6.23,19.9,19.9,0,0,0,13.17-.09c4.78-1.77,7.29-5.37,7.83-10.38.27-2.57.09-5.15.15-7.94a6.82,6.82,0,0,0-.52.47c-5,6.19-11.75,8.18-19.43,7.7-13.84-.85-23-12-25-22.6-2.65-14.09,5.22-28.49,18.4-32.72,9.16-2.93,18.22-2.89,26.68,2.33a28.32,28.32,0,0,1,13.67,21,23.48,23.48,0,0,1,.19,3.45q0,12.89,0,25.76a28.66,28.66,0,0,1-2.28,12c-2.89,6.36-8,10.29-14.4,12.57a35.9,35.9,0,0,1-27.86-1.16,22.88,22.88,0,0,1-5.75-3.85c-.43-.37-.52-.64-.17-1.16C631.42,184.51,633.93,180.67,636.57,176.65Z" transform="translate(-13.21 -2.82)"/><path class="cls-1" d="M263.17,75.43c0,4.37,0,8.55,0,12.74,0,.77-.54.9-1,1.16q-10.69,6-21.41,12-50,27.92-99.88,55.85a27.34,27.34,0,0,1-9.39,3.71c-3,.44-2.95.48-2.95-2.46,0-2,0-4.07,0-6.19a26.79,26.79,0,0,1-14.61-2.28c-3.69-1.61-7.43-3.12-11.14-4.66q-28.16-11.73-56.32-23.46a10.53,10.53,0,0,0-3.83-.83c-3.62-.07-5.39,1.48-5.82,5.13a2.23,2.23,0,0,1-1.18-.38c-7.09-3.1-14.2-6.14-21.38-9a1.27,1.27,0,0,1-.94-1.5,12.51,12.51,0,0,1,1.52-5.84,7,7,0,0,1,8.84-3c28.55,11.93,57.26,23.46,85.92,35.09,4.27,1.73,8.45,3.57,13,4.28a33.87,33.87,0,0,0,15.18-.82,14.08,14.08,0,0,0,2.86-1.2q60.57-33.81,121.14-67.59Z" transform="translate(-13.21 -2.82)"/><path class="cls-1" d="M307.45,132.74q0-18.69,0-37.37c0-1.11.32-1.28,1.32-1.28q22.42,0,44.86,0c1,0,1.25.24,1.24,1.24q-.09,6,0,12.1c0,1-.19,1.33-1.29,1.33-9.83-.05-19.67,0-29.5-.06-1.09,0-1.39.27-1.38,1.37.07,4.63.06,9.27,0,13.9,0,1,.24,1.27,1.25,1.27,9,0,17.91,0,26.87,0,1.06,0,1.32.27,1.31,1.32-.07,3.91-.06,7.83,0,11.74,0,1.05-.19,1.41-1.34,1.4-8.92-.05-17.83,0-26.75-.05-1,0-1.35.19-1.34,1.29.07,5,.06,9.9,0,14.85,0,1,.32,1.23,1.28,1.23,10.08,0,20.15,0,30.22-.05,1,0,1.28.25,1.26,1.25-.06,4.11,0,8.22,0,12.34,0,.83-.21,1.07-1.06,1.07q-23,0-45.93,0c-1.08,0-1-.52-1-1.23Q307.46,151.55,307.45,132.74Z" transform="translate(-13.21 -2.82)"/><path class="cls-1" d="M613.16,79.1c0,1,0,1.89,0,2.77,0,.59-.11.84-.78.84-4.23,0-8.47,0-12.71,0-1,0-.85-.56-.85-1.16V52.68c0-7.91-.08-15.82,0-23.72.1-7.67,0-15.34,0-23,0-.93.27-1.12,1.15-1.11,4,0,8,.05,12,0,1,0,1.16.33,1.16,1.22,0,7.79,0,15.57,0,23.36V30.9c8.18-5,16.75-6.25,25.77-3.15a28,28,0,0,1,14.4,11.18A28.93,28.93,0,0,1,651.09,74,29.3,29.3,0,0,1,613.16,79.1Z" transform="translate(-13.21 -2.82)"/><path class="cls-1" d="M307.76,43.54q0-18.69,0-37.38c0-1,.23-1.33,1.31-1.32,10,.1,20-.21,30,.16,12.16.44,22.61,10.51,24,22.6A25.75,25.75,0,0,1,345.9,55.41a30.48,30.48,0,0,1-9.89,1.5c-3.88,0-7.76,0-11.64,0-1,0-1.33.18-1.33,1.28.06,7.62,0,15.25.06,22.88,0,1-.15,1.36-1.28,1.34-4.28-.08-8.55-.06-12.83,0-1,0-1.26-.22-1.26-1.23Q307.79,62.34,307.76,43.54Z" transform="translate(-13.21 -2.82)"/><path class="cls-1" d="M469.59,168.87c-.48-.1-.71.17-1,.32A28.84,28.84,0,0,1,426.14,150c-4.09-19,9.56-33.28,24-35.54,7.45-1.17,14.82-.9,21.87,2.15,8.1,3.51,12.46,9.88,12.72,18.54.35,11.93.12,23.87.15,35.81,0,.64-.2.8-.82.8-4.51,0-9,0-13.55,0-.77,0-1-.24-.91-.95S469.59,169.51,469.59,168.87Z" transform="translate(-13.21 -2.82)"/><path class="cls-1" d="M263.17,94.07q0,5.33,0,10.63c0,.64-.56.72-1,.94Q249.13,113,236,120.31l-93.19,52.11a27.42,27.42,0,0,1-13.22,3.72c-.84,0-1.12-.21-1.06-1,.06-1.12,0-2.24,0-3.36,0-.5-.13-.67-.67-.68a37.09,37.09,0,0,1-13.66-3.24q-34.33-14.48-68.68-28.92a8.65,8.65,0,0,0-5-.75,3.91,3.91,0,0,0-3.05,2.25c-.27.59-.47.75-1.13.48q-11.1-4.59-22.24-9.13c-.4-.16-.8-.26-.79-.87,0-3.18,0-6.37,0-9.7L24,125.65q43.76,18.33,87.5,36.64a70,70,0,0,0,12.75,4,20.21,20.21,0,0,0,14.66-2.39q11.91-6.77,23.87-13.47,49.63-28,99.29-55.93C262.42,94.34,262.72,94,263.17,94.07Z" transform="translate(-13.21 -2.82)"/><path class="cls-1" d="M404.29,60.55c-6.56,0-13.11,0-19.67,0-1,0-1.2.2-.85,1.18,1.91,5.27,5.79,8,11.18,8.9a23.23,23.23,0,0,0,7.16.08,13.68,13.68,0,0,0,7.61-3.46c.53-.5.76-.43,1.15.13,2.2,3.14,4.4,6.28,6.66,9.37.49.68.29,1-.27,1.39a26.34,26.34,0,0,1-12.78,5.34c-6.93,1-13.77.57-20.13-2.57-9.36-4.62-14.56-12.27-15.68-22.63-.75-6.85.28-13.4,4-19.31,5.19-8.3,12.75-12.73,22.53-13.4,6.61-.45,12.84.69,18.31,4.6a28.21,28.21,0,0,1,12.06,21,34.91,34.91,0,0,1-.2,8.36c-.12.91-.45,1.07-1.28,1.07C417.48,60.54,410.88,60.55,404.29,60.55Z" transform="translate(-13.21 -2.82)"/><path class="cls-1" d="M530.36,60.55c-6.6,0-13.2,0-19.79,0-1,0-1.13.2-.8,1.1,1.9,5.32,5.8,8.14,11.24,9a21.94,21.94,0,0,0,9.16-.34,13.1,13.1,0,0,0,5.61-3.07c.47-.44.7-.45,1.08.1q3.35,4.81,6.79,9.57c.47.65.13.85-.3,1.19a27.48,27.48,0,0,1-15.61,5.71c-6.65.43-13.13-.31-19-3.72-8.65-5-13.3-12.63-14.12-22.56-.55-6.65.52-13,4.15-18.71,5.2-8.17,12.7-12.56,22.38-13.23,6.48-.45,12.61.61,18,4.36a28.06,28.06,0,0,1,12.33,20.71,34.39,34.39,0,0,1-.15,8.95c-.12.82-.43,1-1.21,1C543.55,60.54,537,60.55,530.36,60.55Z" transform="translate(-13.21 -2.82)"/><path class="cls-1" d="M448.59,28.87c.34.15.52-.08.72-.18,8.41-4.58,17-4.35,25.6-.7,6.28,2.68,9.31,8,10.59,14.43a29.54,29.54,0,0,1,.51,5.72q0,16.53,0,33.06c0,1-.29,1.23-1.26,1.22q-6-.09-12,0c-.93,0-1.12-.26-1.12-1.14q0-15.15,0-30.31a17.75,17.75,0,0,0-.6-5.33,9.73,9.73,0,0,0-8.67-6.84,14.51,14.51,0,0,0-6.27.63c-4.37,1.57-6.57,4.84-7.33,9.25a22.86,22.86,0,0,0-.28,4c0,9.51,0,19,0,28.52,0,1-.28,1.17-1.2,1.16-4,0-8.07,0-12.11,0-.78,0-1.1-.11-1.09-1q0-26.72,0-53.43c0-.89.29-1,1.09-1,4,0,7.91.06,11.87,0,1.15,0,1.64.25,1.42,1.43A1.67,1.67,0,0,0,448.59,28.87Z" transform="translate(-13.21 -2.82)"/><path class="cls-1" d="M508.31,118.67a22.65,22.65,0,0,1,8.5-3.33c6.46-.92,12.76-.51,18.69,2.51,5.63,2.87,8.48,7.77,9.75,13.75a32.43,32.43,0,0,1,.56,6.67c0,10.78,0,21.57,0,32.35,0,1-.24,1.35-1.32,1.33-3.88-.07-7.76-.06-11.63,0-1.07,0-1.41-.23-1.4-1.36,0-10.22,0-20.45,0-30.67a16.2,16.2,0,0,0-.53-4.39c-1.37-5-6-7.86-11.62-7.27-7.09.74-11,5.21-11,13-.07,9.71,0,19.41,0,29.12,0,1.2-.22,1.61-1.52,1.58-3.92-.1-7.84-.06-11.76,0-.81,0-1.09-.19-1.09-1.06q0-26.72,0-53.44c0-.91.35-1,1.12-1,4,0,7.91,0,11.87,0,1.06,0,1.57.22,1.36,1.34A6.7,6.7,0,0,0,508.31,118.67Z" transform="translate(-13.21 -2.82)"/><path class="cls-1" d="M712.55,11.43V14c0,3.83.06,7.67,0,11.5,0,1.28.39,1.5,1.55,1.47,3.35-.07,6.71,0,10.07,0,.79,0,1,.22,1,1,0,3.92,0,7.83,0,11.74,0,.91-.33,1-1.11,1-3.48,0-6.95,0-10.43,0-.84,0-1.07.24-1.07,1.07,0,7.27,0,14.54,0,21.8,0,4,1.78,5.78,5.77,5.91,1.95.06,3.91,0,5.87,0,.75,0,.94.18.94.92,0,3.72,0,7.43,0,11.14,0,.51,0,.91-.69,1-5.27.53-10.53.74-15.7-.73-5.93-1.68-8.8-6-10-11.7a34.32,34.32,0,0,1-.54-6.79c0-7.14,0-14.29,0-21.44,0-.88-.19-1.16-1.11-1.14-2.56.07-5.12,0-7.68,0-.74,0-.94-.21-.94-.95,0-4,.05-7.9,0-11.85,0-.88.35-1,1.06-1,2.52,0,5,0,7.56,0,.93,0,1.13-.29,1.11-1.16,0-3,0-6,0-9,0-.9.28-1.22,1.12-1.46C703.71,14.13,708.05,12.79,712.55,11.43Z" transform="translate(-13.21 -2.82)"/><path class="cls-1" d="M263.21,108.31a9.55,9.55,0,0,1-.14,3.28,5.58,5.58,0,0,1-3,3.92q-23.43,13.17-46.81,26.41c-24.15,13.64-48.27,27.33-72.47,40.87-6.62,3.7-13.52,4.36-20.79,1.26-18.16-7.75-36.42-15.24-54.64-22.83q-23.9-10-47.81-19.93c-2.59-1.07-4.32-2.67-4.32-5.65,0-1.37,0-1.38,1.27-.87,26.14,10.66,52.13,21.69,78.19,32.53l28,11.62a21.89,21.89,0,0,0,19.95-1.29q60.69-34.2,121.28-68.6C262.26,108.8,262.68,108.59,263.21,108.31Z" transform="translate(-13.21 -2.82)"/><path class="cls-1" d="M417.87,131.28q0,19.53,0,39.05c0,1-.22,1.34-1.3,1.32-3.92-.07-7.84-.06-11.75,0-1,0-1.26-.24-1.26-1.25q0-25,0-50.08c0-9.42,0-18.85,0-28.27,0-1,.25-1.28,1.25-1.26q5.94.09,11.88,0c1,0,1.17.27,1.17,1.19Q417.85,111.63,417.87,131.28Z" transform="translate(-13.21 -2.82)"/><path class="cls-1" d="M574.92,31.21c2.44-3.45,6-4.46,9.78-5.1a45.86,45.86,0,0,1,6.09-.47c.7,0,1,.13,1,.9q0,7.13,0,14.25c0,.75-.26.83-.91.77a16.48,16.48,0,0,0-9.58,2A11.39,11.39,0,0,0,575,53.87c-.18,7.22-.08,14.44-.1,21.67,0,1.83,0,3.67,0,5.51,0,.94-.29,1.11-1.16,1.1q-6-.08-12.11,0c-.92,0-1.1-.25-1.1-1.13q0-20.83,0-41.67c0-3.83,0-7.66,0-11.49,0-.92.25-1.11,1.12-1.1,4.08,0,8.15,0,12.23,0,.78,0,1.05.19,1,1C574.87,28.9,574.92,30.05,574.92,31.21Z" transform="translate(-13.21 -2.82)"/><path class="cls-1" d="M380.15,121.1c2.66-4.14,6.66-5,10.78-5.62a36.74,36.74,0,0,1,5.14-.29c.62,0,.93.07.92.82q0,7.13,0,14.25c0,.74-.26.84-.91.8a17.11,17.11,0,0,0-7.3.94c-5.48,2-8.5,6-8.58,11.86-.11,8.62,0,17.25-.05,25.87,0,1.89,0,1.89-1.89,1.89-3.8,0-7.6,0-11.39,0-.83,0-1.08-.2-1.08-1q0-26.59,0-53.18c0-.91.25-1.14,1.14-1.13q6,.07,12.11,0c.9,0,1.19.24,1.13,1.14C380.09,118.54,380.15,119.66,380.15,121.1Z" transform="translate(-13.21 -2.82)"/><path class="cls-1" d="M681.46,54.68c0,8.83,0,17.65,0,26.47,0,1-.2,1.28-1.22,1.27-4-.06-8.08,0-12.11,0-.86,0-1-.24-1-1.06q0-26.59,0-53.18c0-1,.32-1.15,1.21-1.15,4,.05,8,.06,12,0,1,0,1.18.27,1.18,1.2C681.44,37,681.46,45.86,681.46,54.68Z" transform="translate(-13.21 -2.82)"/><path class="cls-1" d="M674.1,20.4a8.82,8.82,0,0,1-8.64-8.88,8.82,8.82,0,0,1,17.64.23A8.83,8.83,0,0,1,674.1,20.4Z" transform="translate(-13.21 -2.82)"/><path class="cls-1" d="M331,185.86c.8-1.27,1.57-2.38,2.22-3.55a1.27,1.27,0,0,1,1.48-.7c.78.14.4.78.4,1.16,0,2.84,0,5.67,0,8.5,0,.49.09.93-.68.95s-.79-.39-.79-1c0-2.23,0-4.46,0-7.06-.72,1.15-1.26,2-1.82,2.91s-1.06,1-1.71,0a15.33,15.33,0,0,0-1.77-2.48c0,2.17,0,4.33,0,6.5,0,.52.2,1.13-.75,1.13s-.7-.67-.7-1.16q0-4.25,0-8.5c0-.34-.24-.88.39-.94s1-.13,1.34.47C329.33,183.32,330.13,184.5,331,185.86Z" transform="translate(-13.21 -2.82)"/><path class="cls-1" d="M430.82,185.85c.83-1.31,1.61-2.44,2.29-3.64a1.2,1.2,0,0,1,1.41-.6c.7.11.39.69.39,1.06,0,2.83,0,5.66,0,8.5,0,.48.19,1-.69,1.05s-.76-.58-.76-1.12c0-2.15,0-4.31-.2-6.58-.55.87-1.08,1.75-1.63,2.62s-1,.94-1.65,0-1.08-1.76-1.82-3c0,2.58,0,4.82,0,7.06,0,.31.21.72-.26.94-.64.31-1.18-.06-1.18-.85q0-4.38,0-8.74c0-.34-.27-.89.37-.95s1-.13,1.35.47C429.17,183.32,430,184.5,430.82,185.85Z" transform="translate(-13.21 -2.82)"/><path class="cls-1" d="M350.82,184.29c-.69,1.11-1.23,2-1.82,2.94s-1,.79-1.52,0c-.29-.43-.54-.88-.82-1.32s-.53-.89-.81-1.34c-.42.2-.22.57-.22.83,0,2,0,4,0,6,0,.63-.22.82-.83.82s-.65-.39-.65-.85c0-3,0-5.91,0-8.86,0-.31-.21-.8.33-.87s1-.18,1.37.42c.73,1.23,1.51,2.43,2.38,3.81.78-1.23,1.55-2.34,2.2-3.51a1.27,1.27,0,0,1,1.56-.73c.69.18.34.81.35,1.22,0,2.79,0,5.58,0,8.38,0,.52.1,1-.74,1s-.71-.53-.72-1c0-1.95,0-3.91,0-5.86C350.91,185,350.86,184.76,350.82,184.29Z" transform="translate(-13.21 -2.82)"/><path class="cls-1" d="M403.94,189c0-2.15,0-4.3,0-6.45,0-.59,0-1,.8-1s.66.49.66.95c0,2.8,0,5.59,0,8.38,0,.43.42,1.09-.41,1.28s-1.14-.21-1.51-.84c-1.17-2-2.4-3.95-3.62-5.91-.14-.22-.2-.53-.65-.63,0,2.12,0,4.21,0,6.3,0,.52.21,1.14-.76,1.11s-.7-.56-.7-1.06c0-2.83,0-5.66,0-8.5,0-.37-.28-.94.42-1a1.23,1.23,0,0,1,1.4.62c1.36,2.29,2.78,4.54,4.18,6.81Z" transform="translate(-13.21 -2.82)"/><path class="cls-1" d="M473.71,189v-6.44c0-.47-.1-.93.68-.94s.79.4.79,1c0,2.87,0,5.75,0,8.62,0,.35.26.89-.33,1a1.19,1.19,0,0,1-1.44-.52c-1.17-2-2.41-3.94-3.62-5.91-.2-.32-.42-.63-.82-1.24,0,2.43,0,4.52,0,6.61,0,.52.22,1.13-.75,1.11s-.69-.68-.69-1.16q0-4.19,0-8.38c0-.36-.31-1,.38-1.06a1.19,1.19,0,0,1,1.4.6c1.36,2.29,2.79,4.54,4.2,6.81Z" transform="translate(-13.21 -2.82)"/><path class="cls-1" d="M547.15,189.28v-6.7c0-.52-.1-1,.74-1s.71.54.71,1c0,2.83,0,5.66,0,8.5,0,.36.32.95-.37,1.07a1.21,1.21,0,0,1-1.42-.57c-1.23-2.1-2.53-4.16-3.8-6.23-.13-.2-.27-.38-.61-.86,0,2.46,0,4.62,0,6.78,0,.41.15.89-.58.91s-.9-.17-.89-.87c0-2.91,0-5.82,0-8.73,0-.35-.26-.88.34-1a1.2,1.2,0,0,1,1.42.56c1.17,2,2.41,3.94,3.63,5.91C546.55,188.41,546.77,188.72,547.15,189.28Z" transform="translate(-13.21 -2.82)"/><path class="cls-1" d="M512.49,186.88c0-1.4,0-2.8,0-4.2,0-.53-.15-1.12.78-1.1s.71.66.73,1.16c0,.88,0,1.76,0,2.63,0,.71.24.9.9.86,1.11-.06,2.55.37,3.25-.18s.15-2.09.25-3.19c0-.39-.16-.85.16-1.15a1.18,1.18,0,0,1,1-.07c.37.08.26.44.26.7,0,3,0,6.07,0,9.11,0,.55-.15.77-.74.76s-.75-.23-.74-.78c0-1,0-2,0-3,0-.63-.1-1-.83-.9a25.41,25.41,0,0,1-2.76,0c-.62,0-.85.17-.82.81,0,1,0,2.07,0,3.11,0,.58-.21.76-.77.76s-.76-.24-.76-.78C512.5,189.91,512.49,188.4,512.49,186.88Z" transform="translate(-13.21 -2.82)"/><path class="cls-1" d="M443.16,185.67c0-1.12,0-2.24,0-3.35,0-.47.11-.75.67-.73s.85.06.84.69c0,2.28.06,4.56-.06,6.83-.12,2.09-1.67,3.31-3.83,3.25a3.38,3.38,0,0,1-3.58-3.4c-.08-2.19,0-4.39,0-6.59,0-.53.13-.78.74-.79s.78.33.78.88c0,2.08,0,4.16,0,6.23a2.15,2.15,0,0,0,2.84,2.28,1.83,1.83,0,0,0,1.59-1.83c0-1.15,0-2.31,0-3.47Z" transform="translate(-13.21 -2.82)"/><path class="cls-1" d="M477.17,186.8a12.24,12.24,0,0,1,.16-2.85,3.83,3.83,0,0,1,7.13-.06c.1.4.43,1-.28,1.2-.55.15-1,.1-1.15-.74-.19-1.13-1.1-1.64-2.34-1.56a1.88,1.88,0,0,0-2,1.85,32.76,32.76,0,0,0,0,4.54c.11,1.4,1.3,2.08,2.83,1.79a2.12,2.12,0,0,0,1.57-2.67c-.08-.37-.27-.43-.58-.43h-1.2c-.38,0-.47-.23-.46-.55s0-.67.44-.68a2.41,2.41,0,0,1,.6,0c.87.25,2.24-.67,2.59.52a3.93,3.93,0,0,1-2,4.9,3.72,3.72,0,0,1-5.38-3.57C477.16,188,477.17,187.45,477.17,186.8Z" transform="translate(-13.21 -2.82)"/><path class="cls-1" d="M510.92,192.05c-1.06.39-1.72.15-1.87-1-.1-.7-.5-.91-1.16-.84a8.57,8.57,0,0,1-1.68,0c-1.14-.13-2,0-2.21,1.4-.17,1-1,.28-1.74.72,1.16-3.63,2.23-6.92,3.27-10.21.17-.57.54-.61,1-.57s1-.19,1.16.49C508.75,185.42,509.84,188.73,510.92,192.05Z" transform="translate(-13.21 -2.82)"/><path class="cls-1" d="M395.34,192.19c-.61.14-.88-.23-.95-.76-.13-1-.68-1.32-1.64-1.17a5.74,5.74,0,0,1-1.31,0c-1.11-.09-2.06-.06-2.2,1.43-.07.75-.81.56-1.26.47-.71-.14-.2-.64-.11-.92.92-2.93,1.89-5.84,2.79-8.76.2-.63.44-.91,1.14-.91a1.12,1.12,0,0,1,1.28.91c.9,2.93,1.87,5.84,2.82,8.76C396.07,191.77,396.3,192.3,395.34,192.19Z" transform="translate(-13.21 -2.82)"/><path class="cls-1" d="M449.63,186.88c0-1.48,0-2.95,0-4.42,0-.68.22-.91.9-.88,1.15,0,2.31,0,3.47,0a3,3,0,0,1,.17,6.07c-.27,0-.55,0-.83.05-2.2,0-2.2,0-2.2,2.3,0,.47,0,.95,0,1.43s-.21.76-.77.76-.75-.25-.74-.79C449.65,189.91,449.63,188.39,449.63,186.88Z" transform="translate(-13.21 -2.82)"/><path class="cls-1" d="M538.54,192.18c-.69.14-.89-.3-1-.81-.14-.94-.66-1.24-1.57-1.12a6.19,6.19,0,0,1-1.55,0c-1.09-.14-1.83.1-2,1.36-.11.82-.86.66-1.34.53-.65-.18-.14-.67,0-1,.91-2.93,1.89-5.83,2.79-8.76.2-.68.53-.83,1.18-.84a1,1,0,0,1,1.18.85q1.39,4.45,2.87,8.86C539.33,191.93,539.36,192.33,538.54,192.18Z" transform="translate(-13.21 -2.82)"/><path class="cls-1" d="M320.92,181.63c.75-.19,1,.18,1.25.86.91,2.92,1.89,5.82,2.81,8.74.09.27.63.78-.09.93-.44.08-1.2.32-1.28-.44-.16-1.53-1.14-1.56-2.29-1.46a5.74,5.74,0,0,1-1.31,0c-.91-.13-1.42.16-1.55,1.12-.06.4-.16.83-.8.84s-1-.09-.75-.92c1-3,1.95-6,2.89-9C320,181.74,320.3,181.46,320.92,181.63Z" transform="translate(-13.21 -2.82)"/><path class="cls-1" d="M379.45,192.19c-.73.14-.89-.36-1-.91a1.09,1.09,0,0,0-1.4-1,6.23,6.23,0,0,1-1.67,0c-1.08-.13-1.85.07-2,1.34-.1.82-.83.69-1.32.56-.66-.17-.18-.65-.08-1,.92-2.92,1.88-5.83,2.79-8.76a1,1,0,0,1,1.18-.85c.65,0,1,.16,1.19.84.91,3,1.88,5.91,2.86,8.86C380.23,191.9,380.31,192.3,379.45,192.19Z" transform="translate(-13.21 -2.82)"/><path class="cls-1" d="M310.8,187.25c-1.78.91-1.38,2.49-1.4,3.92,0,.51.14,1.07-.72,1-.55,0-.77-.16-.76-.74,0-3,0-6.06,0-9.09,0-.51.08-.79.71-.8s.79.29.78.87c0,1.27,0,2.54,0,4.15,1-1.14,1.83-2.14,2.74-3s1.32-2.45,3.27-1.85c-1,1.22-2,2.43-3,3.55a1.15,1.15,0,0,0-.12,1.72c1.15,1.62,2.21,3.3,3.33,5a1.54,1.54,0,0,1-2.18-.75C312.64,189.91,311.7,188.61,310.8,187.25Z" transform="translate(-13.21 -2.82)"/><path class="cls-1" d="M490.09,181.6c1,0,1.92,0,2.87,0,.46,0,.65.17.66.63s-.21.63-.65.62c-1.36,0-2.72,0-4.07,0-.74,0-.95.22-1,.95,0,2.43-.05,2.4,2.33,2.46.55,0,1.56-.53,1.61.57.05,1.27-1.05.67-1.62.69-2.32.07-2.27,0-2.32,2.34,0,.91.23,1.18,1.13,1.12,1.23-.08,2.47,0,3.71,0,.51,0,.85.06.84.69s-.44.57-.83.57c-1.84,0-3.67,0-5.51,0-.65,0-.8-.25-.8-.85,0-3,0-5.9,0-8.85,0-.77.27-1,1-.92C488.33,181.64,489.21,181.6,490.09,181.6Z" transform="translate(-13.21 -2.82)"/><path class="cls-1" d="M529.46,185.87c0,1.08,0,2.16,0,3.24a3.32,3.32,0,0,1-3.34,3.24c-2,.16-3.74-.93-4-2.8a42.33,42.33,0,0,1-.12-4.78c0-.8,0-1.6,0-2.4,0-.54.14-.78.74-.79s.75.23.74.78c0,2.11,0,4.23,0,6.34A2.14,2.14,0,0,0,526,191a2,2,0,0,0,2-2.12c0-2.12,0-4.24,0-6.35,0-.57,0-1,.8-1s.69.46.69.94v3.35Z" transform="translate(-13.21 -2.82)"/><path class="cls-1" d="M357.91,192.12c-1.08,0-2.5.41-3.13-.11s-.22-2.1-.24-3.2c0-2.12,0-4.23,0-6.35,0-.69.22-.89.89-.87,1.76,0,3.52,0,5.28,0,.42,0,.89-.12.91.59s-.51.66-1,.66c-1.24,0-2.48,0-3.71,0-.76,0-.94.24-.94.95,0,2.43-.05,2.43,2.32,2.43H359c.45,0,.89,0,.9.64s-.37.69-.85.68c-.76,0-1.53,0-2.28,0s-.79.22-.81.83c-.08,2.59-.1,2.59,2.5,2.59.8,0,1.6,0,2.4,0,.5,0,.73.15.72.68s-.27.58-.68.58h-3Z" transform="translate(-13.21 -2.82)"/><path class="cls-1" d="M458.59,186.75c0-1.39,0-2.79,0-4.19,0-.68.11-1,.91-1,1.79.06,3.59,0,5.39,0,.44,0,.76,0,.77.61s-.28.65-.74.65c-1.36,0-2.72,0-4.08,0-.55,0-.74.16-.77.74-.16,2.64-.18,2.64,2.44,2.64.28,0,.56,0,.84,0,.47,0,.62.21.62.66s-.14.67-.62.66c-.84,0-1.68,0-2.51,0-.56,0-.75.14-.78.73-.13,2.69-.15,2.69,2.51,2.69.8,0,1.6,0,2.4,0,.52,0,.68.19.68.7s-.29.56-.69.56c-1.88,0-3.75,0-5.63,0-.61,0-.74-.25-.73-.79C458.6,189.87,458.59,188.31,458.59,186.75Z" transform="translate(-13.21 -2.82)"/><path class="cls-1" d="M380,181.74a1.4,1.4,0,0,1,2,.87c.51,1.16,1.17,2.25,1.85,3.55l1.82-3.41c.15-.28.28-.57.45-.84a1,1,0,0,1,1.39-.21c.39.19,0,.61-.18.9a19.19,19.19,0,0,1-1.13,2.1,9.31,9.31,0,0,0-1.64,6.43c.06.45.24,1.06-.66,1.07s-.86-.53-.79-1.08a9.45,9.45,0,0,0-1.67-6.54A30.57,30.57,0,0,1,380,181.74Z" transform="translate(-13.21 -2.82)"/><path class="cls-1" d="M418.16,186.87c0-1.43,0-2.87,0-4.3,0-.55,0-1,.78-1s.72.53.72,1c0,2.47,0,4.95,0,7.42,0,.73.19,1,.94.93,1.23-.06,2.47,0,3.71,0,.52,0,.81.08.79.7s-.42.56-.81.56c-1.75,0-3.51,0-5.27,0-.71,0-.88-.27-.86-.91C418.18,189.82,418.16,188.35,418.16,186.87Z" transform="translate(-13.21 -2.82)"/><path class="cls-1" d="M497.75,187.47c0-1.12-.06-2.24,0-3.35s-.18-1.42-1.22-1.26a9.59,9.59,0,0,1-1.2,0c-.4,0-.56-.18-.56-.58s0-.7.57-.69q3.22,0,6.47,0c.46,0,.5.27.5.62s0,.65-.49.64h-.35c-2.28.09-2.28.09-2.28,2.35,0,2,0,4.07,0,6.11,0,.54,0,.89-.75.89s-.73-.39-.72-.91C497.76,190,497.75,188.75,497.75,187.47Z" transform="translate(-13.21 -2.82)"/><path class="cls-1" d="M363.43,186.83c0-1.44,0-2.87,0-4.31,0-.5,0-.92.71-.94s.77.43.77,1c0,2.47,0,4.95,0,7.42,0,.8.24,1,1,1,1.23-.06,2.47,0,3.71,0,.45,0,.75.05.76.63s-.3.64-.75.63c-1.8,0-3.59,0-5.39,0-.63,0-.83-.21-.82-.83C363.46,189.86,363.43,188.35,363.43,186.83Z" transform="translate(-13.21 -2.82)"/><path class="cls-1" d="M409.2,186.86c0,1.48,0,2.95,0,4.42,0,.51,0,.93-.71.94s-.77-.3-.77-.86q0-4.49,0-9c0-.5,0-.81.7-.81s.79.28.78.86C409.18,183.91,409.2,185.39,409.2,186.86Z" transform="translate(-13.21 -2.82)"/><path class="cls-1" d="M415.89,186.87c0,1.47,0,2.95,0,4.42,0,.52,0,.92-.72.93s-.78-.31-.77-.87q0-4.42,0-8.84c0-.5,0-.93.71-.93s.78.43.78,1C415.88,184,415.89,185.44,415.89,186.87Z" transform="translate(-13.21 -2.82)"/><path class="cls-1" d="M337.45,186.75c0-1.43,0-2.87,0-4.3,0-.56.06-.89.76-.87s.72.28.72.8q0,4.55,0,9.09c0,.59-.23.73-.77.74s-.72-.28-.71-.8C337.46,189.86,337.45,188.3,337.45,186.75Z" transform="translate(-13.21 -2.82)"/><path class="cls-2" d="M567.49,145.08c0-8.84,6.45-15.08,15.56-15.05s15.46,6.26,15.46,15-6.44,15.21-15.57,15.19S567.49,154,567.49,145.08Z" transform="translate(-13.21 -2.82)"/><path class="cls-2" d="M731.21,144.31c0,1.92-.06,3.84,0,5.75a4,4,0,0,1-.87,2.64,15.71,15.71,0,0,1-17.22,5.55,14.75,14.75,0,0,1-10.56-13.4c-.39-5.78,1.2-10.74,6-14.35a16.07,16.07,0,0,1,20.17,1.38,9,9,0,0,1,2.42,6.21c.11,2.07,0,4.15,0,6.22Z" transform="translate(-13.21 -2.82)"/><path class="cls-2" d="M649.78,129.27c7.44,0,13.31,4.25,15.06,10.93,2.86,10.91-5.59,20.47-16.8,19.26-6.63-.72-12.25-5.25-13.5-12C632.69,137.47,639.53,129.28,649.78,129.27Z" transform="translate(-13.21 -2.82)"/><path class="cls-2" d="M629.35,39.34c8.94,0,15.3,6.49,15.3,15.63s-6.34,15.65-15.28,15.65S613.89,64,613.93,54.93,620.41,39.35,629.35,39.34Z" transform="translate(-13.21 -2.82)"/><path class="cls-2" d="M323.08,30.86c0-3.55,0-7.11,0-10.66,0-.78.13-1.1,1-1.09,4.19.05,8.39,0,12.58,0a11.28,11.28,0,0,1,11.28,12.74c-.71,6.72-5.13,10.7-11.92,10.71-4,0-8,0-12,0-.79,0-1-.22-1-1C323.1,38,323.08,34.45,323.08,30.86Z" transform="translate(-13.21 -2.82)"/><path class="cls-2" d="M469.58,143.93c0,2.29,0,4.25,0,6.2a3.82,3.82,0,0,1-.78,2.43,15.69,15.69,0,0,1-17.5,5.67,14.87,14.87,0,0,1-10.46-14c-.2-5.67,1.54-10.46,6.26-13.88a16.17,16.17,0,0,1,19.46,1.07,9.08,9.08,0,0,1,2.86,6.12A60.71,60.71,0,0,1,469.58,143.93Z" transform="translate(-13.21 -2.82)"/><path class="cls-2" d="M397.27,49.48c-4.31,0-8.63,0-12.94,0-1,0-1.11-.23-.84-1.15,2.21-7.53,8.79-10.8,16.09-9.91,5.91.72,9.84,4,11.55,9.8.28.93.24,1.29-.91,1.27C405.9,49.44,401.59,49.48,397.27,49.48Z" transform="translate(-13.21 -2.82)"/><path class="cls-2" d="M523.29,49.48c-4.35,0-8.71,0-13.06,0-.81,0-1-.12-.77-1,1.59-5.77,5.8-9.28,12.27-10.14a13.69,13.69,0,0,1,15.47,10c.25.92,0,1.08-.84,1.08C532,49.47,527.65,49.48,523.29,49.48Z" transform="translate(-13.21 -2.82)"/><path class="cls-2" d="M506.75,183.68c.48,1.55,1,3.1,1.47,4.65.19.57,0,.75-.58.78-2.87.18-2.87.2-2-2.49l.9-2.94Z" transform="translate(-13.21 -2.82)"/><path class="cls-2" d="M391.86,183.3l1.76,5.65c-.12.06-.16.09-.19.09-3.46.36-3.46.36-2.46-2.88C391.23,185.3,391.5,184.44,391.86,183.3Z" transform="translate(-13.21 -2.82)"/><path class="cls-2" d="M451.13,184.63c0-1.9,0-1.9,2.34-1.79,1.38.07,2.11.75,2,1.95a1.58,1.58,0,0,1-1.42,1.64,6.41,6.41,0,0,1-1.07.07C451.13,186.52,451.13,186.52,451.13,184.63Z" transform="translate(-13.21 -2.82)"/><path class="cls-2" d="M533.33,189.1c.09-.42.14-.73.23-1,.47-1.51,1-3,1.5-4.77.6,1.91,1.1,3.59,1.64,5.25.17.49-.07.54-.44.54Z" transform="translate(-13.21 -2.82)"/><path class="cls-2" d="M321,183.49c.54,1.7,1,3.24,1.51,4.77.2.59.12.82-.59.86-2.82.12-2.82.14-2-2.5A16.65,16.65,0,0,1,321,183.49Z" transform="translate(-13.21 -2.82)"/><path class="cls-2" d="M374.17,189.1l1.8-5.81c.61,2,1.12,3.63,1.65,5.29.12.38,0,.52-.36.52Z" transform="translate(-13.21 -2.82)"/></svg>