<svg id="Layer_1" data-name="Layer 1" xmlns="http://www.w3.org/2000/svg" viewBox="0 0 1000 1000"><defs><style>.cls-1,.cls-2{fill:#00a651;stroke:#00ad5f;stroke-miterlimit:10;stroke-width:11px;}.cls-2,.cls-3{fill-rule:evenodd;}.cls-3{fill:#fff;}</style></defs><circle class="cls-1" cx="499.7" cy="365.81" r="131.93"/><path class="cls-2" d="M443.64,639.79v0a65.59,65.59,0,0,0-35.39-78.16,216.07,216.07,0,0,1-124.6-195.79c0-119.32,96.72-216,216-216s216,96.72,216,216a216.07,216.07,0,0,1-123,195.05A65.71,65.71,0,0,0,558.84,642v0c6.39,18.38,19,31.74,36.92,39.23s36.29,7,53.84-1.37c117.14-56,198.06-175.61,198.06-314.11,0-192.18-155.79-348-348-348s-348,155.79-348,348c0,139.5,82.09,259.83,200.6,315.31,18.07,8.46,37,8.59,55.16.36S438.07,659,443.64,639.79Z"/><path class="cls-3" d="M457.71,981c15.77,1.59,38.39,1.42,49.76-7.92,6-4.94,8.61-9.68,10.34-19.81,2.36-13.84,1.19-128,1.19-148l-31.49.38v88.53c0,69.9,3.66,54.73-29.8,58.1V981Zm-209-145.66c18.77-5,39,4,41.38,21.42,3,22.73-4.27,35.85-23.18,40.16-45.87,10.46-57.46-51.2-18.2-61.58Zm150.08-.8c43.29-8,52.27,54.42,14.74,62.95-20.27,4.61-36.3-6.45-39.82-22.91-4.09-19.11,4.29-36.2,25.08-40ZM341.5,872c-7.63-83.42,122.06-88.92,127.12-11.11,2.43,37.41-23.83,63.85-58.43,65.79-34.05,1.91-65.33-17.92-68.69-54.68Zm-49.72-53.19c-15.72-13.34-43.93-19-66.45-7-56,29.71-35.89,122.62,38.59,113.86,18-2.12,21.83-9.82,28.2-13.21.42,9-.28,18.24-4.24,25.36-2.73,4.92-9.48,10.35-17.73,12.35-23.15,5.59-33.66-2.95-46.71-11.85l-19.59,19.4c2.38,4.42,6.33,7,11,10.14,28.84,19.49,75.64,19.57,98.26-12.53,12.48-17.71,9.11-46.93,9.11-70.85V805.36H291.74l0,13.48Zm277.76,34.93c4.82-30.8,57.54-29,60.2,0Zm91.35,22.82-92,0c5.26,27,46.49,32.36,64.28,12.09,5,2.27,17.81,11.18,21.4,15.22-13.53,20.44-51.86,30.28-82.27,16.83-62.84-27.79-35.68-130.29,42.21-113.6,35.09,7.52,46.36,35.73,46.36,69.44ZM749.5,855.1l51.81-48.92-41-.95-50.55,48.43L710,774l-30.47-.11.33,153.2h29.8l.09-33,19.89-17.59,39.28,50.63,33.26-.28-12.84-17.48-37-49.31Z"/></svg>