<svg id="Layer_1" data-name="Layer 1" xmlns="http://www.w3.org/2000/svg" xmlns:xlink="http://www.w3.org/1999/xlink" viewBox="0 0 1918.87 1230.95"><defs><style>.cls-1{fill:url(#linear-gradient);}.cls-2{fill:#dee6f5;}.cls-3{fill:#bdcedf;}.cls-4{fill:#aebfd8;}.cls-5{fill:#dae7f1;}.cls-6{fill:#d1edf3;opacity:0.5;}.cls-7{fill:#5d6690;}.cls-8{fill:#757ea7;}.cls-9{fill:#98a1bc;}.cls-10{fill:#546086;}.cls-11{fill:#4e5777;}.cls-12{fill:#455e43;}.cls-13{fill:#252529;}.cls-14{fill:#2e2e35;}.cls-15{fill:#42464d;}.cls-16{fill:#353438;}.cls-17{fill:#565b61;}.cls-18{fill:#383b40;}</style><linearGradient id="linear-gradient" x1="959.02" y1="1230.95" x2="959.02" gradientUnits="userSpaceOnUse"><stop offset="0.3" stop-color="#fff"/><stop offset="1" stop-color="#aee2fa"/></linearGradient></defs><polygon class="cls-1" points="1917.76 1230.95 0.06 1230.95 0 0 1918.05 0 1917.76 1230.95"/><path class="cls-2" d="M1.13,316.76l52.08,33.67S88.92,381.68,128,436.2s51,81.95,85,111,54.4,20.08,71.4,18.26,25.5,9.22,34,2.82,8.5-35.46,28.9-44.55,44.2-30.89,56.09-41.79,18.7-41.79,28.9-54.52,1.7-36.34,52.7-52.7,112.2-36.34,127.5-45.43,69.7,27.26,100.3,58.16,40.8,56.34,76.5,90.87,32.3,50.88,76.5,52.7,81.6-30.89,141.1-65.42,93.49-47.26,117.29-80,85-76.33,85-76.33,64.6,60,86.7,85.42,25.5,56.34,51,85.41,17,45.44,30.6,67.25,69.7,54.52,69.7,54.52,28.9,50.88,98.6,14.54,78.2-56.34,117.3-98.14,37.39-65.43,78.19-100,122.37-89.05,122.37-89.05l55.52-20.17-.29,798.08L1.13,1103.09Z" transform="translate(-1.13 123.71)"/><path class="cls-3" d="M1.19,606.69l-.06,496.4,1917.76,4.14L1918.8,634s1.52,7.6-12,10-38.18-16-59.67-27.92-75.66-48-120.91-77.83-93.82-71.76-110.79-92.05-84.53-100.36-84.53-100.36-11.58-16.76-21.76,14.29-28.27,72.83-37.32,88.35-32.81,59.7-45.25,75.22-35.07,34.63-43,39.4-33.94,23.88-55.43,8.36-70.14,0-70.14,0-29.41,17.91-61.09,26.27-76.93,32.24-106.34,6-57.7-95.53-86-115.82S994.37,441.29,957,429.35,922,329.05,922,329.05s-3.4-39.41-15.84-52.54-33.94-32.24-33.94-32.24-24.89,6-24.89,19.11,2.26,41.79-5.66,60.89-15.83,31.05-27.15,54.93-14.7,44.18-26,53.73-45.25-7.16-53.17,9.55-26,77.61-29.41,91.94S631.22,584.57,627.83,587s-28.28,41.79-49.78,37-36.2-47.77-57.69-62.09-24.89-3.59-38.47,8.35-45.25,33.44-66.74,15.53-58.83-50.15-69-51.35S302,520.09,290.7,498.6s-63.35-60.89-72.4-64.48-41.86,11.94-43,17.91-38.46,49-38.46,60.9-20.08,38.16-45,50.1S1.19,606.69,1.19,606.69Z" transform="translate(-1.13 123.71)"/><path class="cls-4" d="M936.67,763.68c-2.26-3.58-11.31-32.24-49.77-70.45s-60-66.87-58.83-71.64-17,4.77-26,10.74-26,21.5-20.36,1.2,11.31-22.69,5.65-38.21S776,571.44,760.19,560.69,741,527.26,729.65,527.26s-23.76,7.16-23.76,7.16l-49.8,37s57.72-23.83,63.37-23.83,12.45,3.58,2.27,26.27-84.85,83.58-74.67,82.38,80.32-66.86,87.11-62.09-5.66,38.21-24.89,58.51-40.36,39.4-63.17,50.15-53.35,16.72-65.8,39.4S565.61,778,595,773.23s72.4-10.75,72.4-10.75l86.72-3.58s78.45-1.19,94.29,2.39S936.67,763.68,936.67,763.68Z" transform="translate(-1.13 123.71)"/><path class="cls-4" d="M846.17,372s-10.18-6,0,44.18,12.44,68.06,28.28,95.53,19.23,44.18,19.23,44.18-46.38-32.24-45.25-28.66,11.31,39.4,33.94,60.89,45.25,50.15,47.51,68.06-7.91,81.2,0,87.17S941.2,630,943.46,613.23s-1.13-53.73,0-65.67S918.57,511.74,931,512.93s32,8.36,31.83,3.58-22.78-31-12.6-27.46,36.2,20.3,36.2,20.3l-6.79-28.66L997.72,482a104.32,104.32,0,0,1-12-22.07C981,447.75,957,429.35,957,429.35s-22.63-13.14-20.37-9.56,17,23.89,10.18,29.86-26.06-3.59-27.17-4.78-2.24,11.94-11.29,13.13-15.84-11.94-15.84-23.88-17-27.46-17-37-10.18-34.63-7.92-41.79-3.39-28.66-3.39-28.66-3.39,0-2.26-22.69-9-43-9-43l-5.66,2.39s1.48,22.79-.33,35.88-4.2,31-5.33,39.34S846.17,372,846.17,372Z" transform="translate(-1.13 123.71)"/><path class="cls-4" d="M958.17,736.21c5.65-26.26,12.44-62.3,15.84-85.48s7.91-54.22,0-66.16-5.72-27.46-5.72-27.46,19.29,20.3,22.68,39.4-4.61,31,6.75,50.15,22.67,38.21,23.8,45.37,21.49,70.45,24.89,75.23-58.83-8.36-65.62-7.16S958.17,736.21,958.17,736.21Z" transform="translate(-1.13 123.71)"/><path class="cls-4" d="M1465,681.29s72.4-94.33,70.14-111-31.63-3.58-35.05,0-21.52,19.11-20.39,10.75,29.42-47.76,31.68-54.93-32.81,1.2-33.94,4.78,12.5-15.52,22.65-34.63,7.9-58.5,7.9-58.5l-65.62,91.94s57.7-113.44,63.35-126.57,11.32-35.82,12.45-40.6-4.89-20.22,12.44-8.36,26,39.41,26,39.41l-21.49-22.69s1.13,17.91,7.92,31,29.41,47.77,36.2,53.74-54.3-76.42-48.65-58.51,11.31,51.34,28.28,70.45,45.26,62.09,45.26,62.09-60-69.26-70.14-77.62-2.27,44.58,12.44,63.48,14.71,30.85,37.33,51.15,29.42,33.43,49.78,59.7,47.51,90.75,47.51,90.75Z" transform="translate(-1.13 123.71)"/><path class="cls-4" d="M1834.92,761.29c-20.36-19.14-181.57-150.6-145.09-122.84s117.09,75.15,135.76,79.63-95.88-121.76-79.76-110.37S1870.56,712,1868,697.65s-60.24-80.72-36.48-61.91,75.51,61,75.51,61l7.64,64.57Z" transform="translate(-1.13 123.71)"/><path class="cls-5" d="M1595.65,435.91c3.4,1.2,1.13,5.38,23.19,28.66s33.38,40.6,62.22,62.69,142.55,89,140.85,89-95-48.35-107.47-56.71-39.6-19.11-39.6-19.11,18.67,26.87,45.82,60.3,55.43,68.66,37.33,60.3-49.73-47.16-73.51-72.84S1639.21,552.93,1655,581s15.28,56.72-4.52,30.45-88.81-100.3-88.81-100.3l66.18,52.54s-2.26-22.69-15.27-42.39-47.51-65.08-47.51-65.08,46.94,38.81,47.51,33.44-43-82.39-43-82.39Z" transform="translate(-1.13 123.71)"/><path class="cls-4" d="M1286.24,573.23s-36.2,17.31-29.41,19.7,38.46,0,34.5,7.16-27.15,34-25.45,39.41,35.63-6.57,32.24,0-51.47,40-53.17,41.19-86.54-16.12-86.54-16.12,38.46-23.88,55.43-30.45S1194,618,1194,618s41.29-23.28,45.82-27.46,14.71-11.34,23.76-14.33S1286.24,573.23,1286.24,573.23Z" transform="translate(-1.13 123.71)"/><path class="cls-5" d="M972.87,515.91s13.58,7.17,21.5,15.53,1.13-15.53,0-17.91-14.14-29.85-2.83-20.9,24.89,16.12,24.32,13.14,10.18,8.35,20.93,29.85,19.8,47.16,32.81,63.88,52,56,61.09,63.21-6.79,8.43-20.36-4.11-30.55-25.76-14.15,9.51,36.21,74.07,7.36,40S1050.37,655,1050.37,655s11.31,37.61,11.31,40.6-17-13.73-30-38.81-15.27-34-22.06-47.16-22.06-43.59-22.06-43.59,23.19,14.93,20.93,7.17-19.8-25.67-26.59-35.82A67.41,67.41,0,0,1,972.87,515.91Z" transform="translate(-1.13 123.71)"/><path class="cls-5" d="M862.57,255.62s7.92,9.55,7.92,25.07.57,14.33,5.66,31.64,5.65,51.35,11.31,63.29,5.09-31.05,5.09-31.05,9.05,13.13,13.58,25.67,10.74,46.57,10.74,46.57-.56-23.28,0-44.18-4-38.21-6.22-55.52-8.48-35.23-18.1-46a286.28,286.28,0,0,0-20.36-20.3l8.48,27.46Z" transform="translate(-1.13 123.71)"/><path class="cls-5" d="M735.3,442.48s.85-8.36,8.49-11,35.07-1.5,39.87,0,19.75-25,19.75-25,1.07,24.08,0,33-7,4.47-8.72,19.7-3.39,12.24,1.7,31.64,6.79,22.09,21.21,36.42,37.34,31.34,17.82,22.39-38.18-26-25.45-10.75,7.43,26,33,55.52,37.43,48.14,42.52,56.31-19.51-8.84-30.54-25-24.61-31.35-29.7-32.24S811.66,611.44,804.88,581s-4.25-36.72-14.43-43.88-21.21-2.69-17.82-16.12-9.33-22.68-15.27-30.15,4.6-3.88-3.22-16.42-25-16.45-23-21.8S735.3,442.48,735.3,442.48Z" transform="translate(-1.13 123.71)"/><path class="cls-4" d="M491,561.57s21.49-4.46,12.44,11.06-50.91,27.46-28.29,27.46,45.26-25.15,20.37,7.13,5.65,20.34-14.71,34.67-48.64,40.59-44.12,44.17,20.53,3.59-.48,15.53-53.82,21.49-42.51,0,45.25-37.24,27.15-50.86-22.62-18.4-7.92-28,36-38.21,36-38.21Z" transform="translate(-1.13 123.71)"/><path class="cls-4" d="M299.19,625.77s-45-47.47-29.7-49.26,33.09,24.18,22.91,0-17-33.13-13.58-28.65,25.46,25.53,11-1.12S264.4,500.39,278,511.14s33.93,33.13,59.39,44.78,50.06,43,21.21,26.86-54.3-39.14-45-21.81,19.52,37,15.27,32.56S309.37,581,309.37,581l1.7,26.23s17.46,37.35,7.88,35.56S299.19,625.77,299.19,625.77Z" transform="translate(-1.13 123.71)"/><path class="cls-4" d="M216,443.08c-.85,3.58-29.7,34-18.67,34.92s26.3-17.91,18.67,0-36.42,47.47-21.18,47.47,16.94-13.44,15.24,0-6.53,15.22-5.81,25.07,4.37,13.19,0,25,2.67,22.5,0,27.88S192.28,615,177,625.77s-20.37,9.08-30.55,17.07-34.78-.06-18.66-10.81,34.9-34,42.48-51-17.88-26-22.12-25.07,4.24-4.48,13.58-16.12-17-9-17-12.54,13.57-18.81,16.12-24.18,4.36-26,9.39-38.51,17.76-11.64,23.7-17S216,443.08,216,443.08Z" transform="translate(-1.13 123.71)"/><path class="cls-5" d="M230,451.3c1.69,0,42.42,35.29,31,32.6s-21.64-9.66-20.37-7.42,6.79,16,11.88,25.39S272,534.94,272,534.94l-21-17.05s23.12,49.24,21,47.89-23.34-19.71-24.18-16.13,11.59,42.09,3.25,32.69-27-43-25.31-56,7.21-22.75,7.21-33.5-10.18-41.56-10.18-41.56Z" transform="translate(-1.13 123.71)"/><path class="cls-6" d="M582.17,160a26.44,26.44,0,0,0-5.43.56c-4.52-11.06-21.51-19.29-41.79-19.29-.93,0-1.85,0-2.77.06-2.59-4-7.67-6.69-13.53-6.69a19.8,19.8,0,0,0-2.19.14c-3.27-9.19-14.27-16.62-28.68-19.69A44.42,44.42,0,0,0,492,96.41c0-35.13-42.71-63.6-95.4-63.6-46.69,0-85.54,22.37-93.78,51.9C291.2,85,281.87,91,281.37,98.5,255.73,102.76,236,117,232,134.65h-.74c-27.65,0-50.06,14.67-50.06,32.77s22.41,32.77,50.06,32.77c2,0,4-.09,6-.24,15.82,4,38.79,6.48,64.35,6.48,26.36,0,50-2.66,65.82-6.86,8.63.41,17.57.62,26.74.62a492.85,492.85,0,0,0,72.19-4.94,169.66,169.66,0,0,0,19,1c15.64,0,29.81-2,40.06-5.31a72,72,0,0,0,9.53.63c14,0,26.37-3.9,34.22-9.95a23.16,23.16,0,0,0,13,3.71c10.18,0,18.42-5.68,18.42-12.68S592.35,160,582.17,160Z" transform="translate(-1.13 123.71)"/><path class="cls-6" d="M909.53,114.87c0-1.76-4.59-3.26-11.06-3.86-1.73-4.4-7.94-7.66-15.35-7.66-.6,0-1.18,0-1.76.06a11.91,11.91,0,0,0,1.45-5.59c0-10.75-15.48-19.62-35.54-21a7.46,7.46,0,0,0,.75-3.19c0-6.49-8.76-11.75-19.57-11.75a31.3,31.3,0,0,0-6.71.72c-7.42-20.8-34.14-36.2-66-36.2-21.37,0-40.42,6.94-52.89,17.79a10.24,10.24,0,0,0-6.44-2.12c-4.81,0-8.7,2.88-8.7,6.45,0,2.86,2.52,5.28,6,6.13a36.25,36.25,0,0,0-6,19.67,35.06,35.06,0,0,0,2.77,13.54,22.75,22.75,0,0,0-2.77-.18c-7.67,0-14.17,3.69-16.48,8.8-16.48.61-29.49,8-29.49,17,0,9.42,14.18,17,31.68,17a50.74,50.74,0,0,0,19.89-3.78c7.85,2.35,18.18,3.78,29.5,3.78,12.7,0,24.15-1.8,32.25-4.68,8.77,2.92,20,4.68,32.36,4.68,14,0,26.65-2.27,35.82-5.94a92.47,92.47,0,0,0,23.23,2.72c12,0,22.69-1.9,29.36-4.82a23.22,23.22,0,0,0,7.26,1.13c5.65,0,10.6-1.9,13.4-4.75C904,118.41,909.53,116.79,909.53,114.87Z" transform="translate(-1.13 123.71)"/><path class="cls-6" d="M1652,120.08a38.17,38.17,0,0,0,4-16.88c0-24.27-23.16-43.95-51.74-43.95h-.13c-9.26-28.56-47.46-50-93.21-50-48.2,0-88,23.77-94.44,54.63-.65,0-1.28,0-1.94,0A96,96,0,0,0,1382.6,69c-10.3-10.23-30.07-17.17-52.79-17.17-30.45,0-55.57,12.46-59.7,28.63a49.32,49.32,0,0,0-16.39-2.72c-19.33,0-35,10.45-35,23.35a16.19,16.19,0,0,0,.13,1.71,73.71,73.71,0,0,0-12.3-1c-19.18,0-35.27,7.08-40.09,16.69-.51,0-1,0-1.51,0-33.4,0-60.88,12.58-64.5,28.75-11.07.75-19.71,6.94-19.71,14.46,0,8,9.83,14.54,21.94,14.54a29,29,0,0,0,14.37-3.57c11.87,6.49,28.9,10.58,47.9,10.58a121.67,121.67,0,0,0,27-2.95,103.39,103.39,0,0,0,25.27,2.95c11.77,0,22.48-1.74,30.63-4.57a234.19,234.19,0,0,0,47,4.57c24.27,0,46.53-3.38,64-9,18,5.66,40,9,63.81,9,26.39,0,50.61-4.1,69.62-10.94a72.27,72.27,0,0,0,43,13.72c19.8,0,37.55-7.51,49.64-19.38,8.9,7.83,22.87,12.9,38.63,12.9,26.89,0,48.69-14.7,48.69-32.84C1672.21,135.72,1664.23,126.05,1652,120.08Z" transform="translate(-1.13 123.71)"/><path class="cls-7" d="M1.19,1107.23,1.13,696.69l145.33-54.46s164.3-75.13,190.91-86.62,85.3-64,85.3-64,48.58,2.07,58.81-.84,23,8.09,43.46,26.84,33.32,4.13,52.46,43.34,70.48,63.06,88.16,66,92.79,57.39,126.93,65,207.91-34.59,232.25-49.19,44.78-50.64,72.91-69.61,74.14-82.74,94.6-81.47,41.54,55.52,45.06,69.21,16,27.79,26.53,45.1,78.72,31.6,78.72,31.6,51.67,15.13,118.14,13.06,144.94-.19,158.89-12.28,123.8-53.54,142.18-59.15,125.85-77,125.85-77l31.56-30.45-.29,635.39Z" transform="translate(-1.13 123.71)"/><path class="cls-8" d="M488.41,490.84s9.69,27,11,38.81-.93,28.19,4,43S498.1,590,513.44,623.15s7.67,68.78,10.22,84.14,15.35,63.62,16.62,66.92,32,17.32,31.33,25-10.87,25.51,9.58,21.68,6.39-10.2,53.69-24.23,69-19.14,84.37-33.17,62.32-56.18,62.32-56.18l5.34-16.82s-61.9-37.66-70.53-45.32-41.23-32.53-45.06-34.44-23.82-5-33.66-14.35-30.58-8.61-41.13-22-28.81-30.51-32.37-33.88-19.4-14-25.15-17.78-32.68-21.38-32.68-21.38Z" transform="translate(-1.13 123.71)"/><path class="cls-8" d="M1192.25,491.76s16.94.31,20.77,7,14.38,28.17,20.13,34.65,13.55,20.88,19.18,29.45,5.2,30.66,10.35,31,10.13,15.76,21,25.88,47.69,11.35,50.37,16,73.11,8.76,70,12.92-28,13.73-44.33,20.43-85.33,23.81-87.25,38.22-24.92,38.32-38.35,45-71.9,16-71.9,16-67.12-7.39-53.7-13.13,47.94-39.23,40.27-54.54,4.8-52.62,4.8-61.23-6.64-28.7,4.83-39.23,29.68-26.95,29.68-26.95-22-7.53-20.13-16.12,12.46-31.55,19.17-37.29S1192.25,491.76,1192.25,491.76Z" transform="translate(-1.13 123.71)"/><path class="cls-9" d="M488.41,490.84s19,2.54,30.46,11.45,32.58,19.78,33.56,25,9,10.43,16.26,17.51,19.88,22.73,27.84,29.58S632,592.45,632,592.45l-30.65,9.65s-6.72-1.92-12.47,13.39-5.75,28.79-3.83,37.36-13.42,48.75-13.42,48.75-19.18-17.22-23-33.49-1-40.18-12.46-57.4-23-27.75-24.93-43.06-4-32-4.87-38S488.41,490.84,488.41,490.84Z" transform="translate(-1.13 123.71)"/><path class="cls-9" d="M1192.25,491.76c1.57.07,11.38,3.47,16.4,3.33s4.74,4.25,7,8.54,9.71,18.1,11.63,21.22,11.61,13.14,14.8,17.93,10.23,20.09,10.23,20.09-7.59,8.28-9.87,10.36-13.1,20.26-14.08,19.62-8.65-23-15.68-26.47-20.45-10.84-20.45-10.84,14.06-4.47,15-4.47-17.9-4.12-19.18-8.76,2.56-17.07,1.92-21.54.32-7,1-9.88S1192.25,491.76,1192.25,491.76Z" transform="translate(-1.13 123.71)"/><path class="cls-10" d="M1619.59,640s53.87-26.85,78.28-36.27,66.61-24.21,79.38-31.53,55.58-33.84,66.09-40.59,51.5-36.21,51.5-36.21l24.34-23.26V803.17s-13.14,18.58-29.44-13.75-35.87-72.31-35.87-72.31l9.87-42s-68.89,15-71.76,16,4.44-43.06,7.53-45.93-31.4-5.83-51.53-4.35-15.73-8.66-25.6-10.77S1619.59,640,1619.59,640Z" transform="translate(-1.13 123.71)"/><path class="cls-10" d="M1188.39,492.87,1173,515.77l-16.58,29.88v36s-25,22.4-28.84,27.18S1110.15,648,1110.15,648s5.89,20.65,2.54,27.07-26.78,39.9-34,49.47-29.68,33-39.75,34.92-46.48,39.71-46.48,39.71S982,745.41,979.07,743.6s9.47-30.52,18.64-42,4.64-26.51,4.64-26.51l22.38-32.25L1080,588s18-17.91,19.46-18.39,42.21-38.2,42.21-38.2,10.52-15.86,12.92-18.25,18.21-16.74,19.65-16.74S1188.39,492.87,1188.39,492.87Z" transform="translate(-1.13 123.71)"/><path class="cls-10" d="M422.67,491.76l32-10.21,26.85,9.29s-19.18,29.51-21.73,38.81,16.62,54.16,16.62,54.16-21.74,25.3-24.29,43.16,14.06,79.12,14.06,87.4-52.41,46.55-52.41,46.55l35.11,21.68s-7,37-18.5,45.93S297.4,912.72,297.4,912.72s-11.51-54.85-17.9-57.4-75.43-40.82-75.43-40.82,37-34.45,43.43-48.48-40.87-37-38.31-42.1,72.86-60.33,86.93-67.8,32.76-62.59,32.76-62.59l8.49-37.61Z" transform="translate(-1.13 123.71)"/><path class="cls-11" d="M417.24,496.85l-35.47,70.8L354.92,604s36.43,32.88,31.16,33.66-49.38,29.49-58,41.92-9.62,45-9.13,50.71S283,771.23,283,774.21s-73.81,43.13-73.81,43.13S159.33,782,152.62,782s-70.95-20.1-70.95-20.1l12.47-37.31L28,707.29,24.16,689.2l115-46.36,109.08-46.62,52-30.48,60.4-38.48Z" transform="translate(-1.13 123.71)"/><path class="cls-10" d="M846.75,688.57s64.58,6,70.17,7.29,41.25,40.35,41.25,40.35l22.62,23.89s33.63-56.58,40.73-68.07,3.22-49.19,3.22-49.19L962,656.59l-25.75,5.65Z" transform="translate(-1.13 123.71)"/><path class="cls-11" d="M945.4,660.23,982,671.62l-12.79,19.14,28.55,30.53s4.58,24.32,4.63,26.23-4.63,36.36-4.63,36.36l28.07-46.56S1006,710,1009.94,711.22s33.43-19.83,36.6-23.65-5.78-19.78-5.78-19.78l42.76-57.4,39.7-48.48,18.4-30.54-62.51,53.51L1010.2,646Z" transform="translate(-1.13 123.71)"/><path class="cls-12" d="M1877.32,672.39c15.91,4.9,20.31,2.76,41.48-2.93-15.57,20.64-39.43,38.12-69.71,52.91,29.66-8.84,43.5-8.37,65.75-23.65-13.72,26.22-34.22,36.7-78.75,56.49,17.41,2.6,34.81,2.77,52.38-3.83-8.7,13.54-25.11,25.3-45.8,36.06-34-19.15-60.32-40.29-73.64-64.83,24.54,11.67,48,15.39,71.1,17.26-35.32-25-62.19-50.15-77.1-75.65l47.11,18.61c-26.11-20.13-42.61-44.42-54.83-70.56l30.85,13.51c-33.5-33.18-54.39-67.48-54.83-103.59-2.65,32.62-15.23,63.5-48,90.83l23.07,3.75c-6.28,14.79-19.65,27-51.57,34.08,15.92,5.67,21,3.2,42.21-3.4-11.55,17.72-27.48,33.42-47.28,47.33-25.5-17.25-41.77-37.95-53.81-60.23l30.84,11.67c-33.49-28.67-54.38-58.3-54.83-89.5-2.64,28.19-15.22,54.86-48,78.48l23.07,3.24c-4,8.15-10.92,15.38-23.65,21.14-20.35-14.12-36.68-30.09-48.46-48.16,21.17,6.6,26.29,9.07,42.21,3.4-31.91-7.09-45.29-19.29-51.57-34.08l23.07-3.75c-32.75-27.33-45.33-58.21-48-90.83-.44,36.11-21.33,70.41-54.82,103.59l30.84-13.51c-12.21,26.14-28.72,50.43-54.83,70.56L1409,628.19c-13.11,22.41-35.46,44.57-64.65,66.56-21.58-15.49-38.43-31.09-49.08-46.83L1342.39,664c-26.11-17.39-42.62-38.38-54.83-61l30.85,11.68c-33.5-28.67-54.39-58.31-54.83-89.51-2.65,28.19-15.23,54.87-48,78.48l23.07,3.25c-6.28,12.77-19.65,23.32-51.57,29.44,15.92,4.9,21,2.76,42.21-2.93-15.58,20.64-39.07,38.12-69.35,52.91,29.65-8.84,43.68-8.37,65.92-23.65-13.72,26.22-34.12,36.7-78.65,56.49,17.4,2.61,34.85,2.77,52.42-3.83-8.7,13.54-25.09,25.3-45.78,36.06-34-19.15-60.31-40.29-73.62-64.83,24.53,11.67,48,15.39,71.1,17.26-35.32-25-62.18-50.15-77.1-75.65l47.12,18.61c-26.11-20.13-42.62-44.42-54.83-70.56l30.84,13.51c-33.49-33.18-54.38-67.48-54.83-103.59-2.64,32.62-15.22,63.5-48,90.83l23.06,3.75c-6.27,14.79-19.65,27-51.56,34.08,15.92,5.67,21,3.2,42.21-3.4-15,23-37.39,42.57-66,59.27-20.74-16-34.67-34.44-45.33-54.16l30.84,11.68c-33.5-28.67-54.39-58.3-54.83-89.5-2.65,28.18-15.22,54.86-48,78.47L848,620.43c-6.27,12.78-19.65,23.32-51.56,29.44,15.91,4.9,21,2.76,42.2-2.93-9.4,12.46-21.75,23.76-36.68,34-27.72-7.23-39.83-18.81-45.7-32.66l23.06-3.76c-32.75-27.33-45.32-58.2-48-90.82-.45,36.11-21.33,70.4-54.83,103.58l30.84-13.51c-12.21,26.15-28.71,50.44-54.83,70.56l47.12-18.6c-13.11,22.4-35.45,44.57-64.64,66.56-21.59-15.5-38.43-31.1-49.09-46.84l47.12,16.08c-26.11-17.39-42.62-38.38-54.83-61l30.84,11.67c-33.49-28.67-54.38-58.3-54.83-89.5-2.64,28.19-15.22,54.86-48,78.48l23.06,3.24c-6.27,12.78-19.65,23.32-51.56,29.45,15.92,4.9,21,2.76,42.21-2.94-15.58,20.64-39.08,38.13-69.35,52.92,29.65-8.84,43.67-8.38,65.92-23.65-13.72,26.22-34.13,36.7-78.65,56.48,17.4,2.61,34.85,2.78,52.42-3.83-8.7,13.54-25.1,25.3-45.78,36.07-34-19.15-60.31-40.29-73.63-64.84,24.54,11.67,48,15.4,71.11,17.27-35.33-25-62.19-50.16-77.1-75.65L412,714.35c-26.12-20.12-42.62-44.41-54.83-70.56l30.84,13.51c-33.5-33.18-54.39-67.47-54.83-103.58-2.65,32.62-15.22,63.49-48,90.82l23.06,3.76c-6.28,14.79-19.65,27-51.57,34.08,15.92,5.67,21,3.19,42.21-3.4-11.55,17.71-27.48,33.41-47.28,47.33-25.5-17.25-41.76-37.95-53.81-60.23l30.84,11.67c-33.49-28.67-54.38-58.3-54.82-89.5-2.65,28.18-15.23,54.86-48,78.47L149,670c-4,8.14-10.92,15.37-23.65,21.14C105,677,88.64,661,76.86,643c21.17,6.59,26.29,9.07,42.21,3.4-31.91-7.09-45.29-19.29-51.57-34.08l23.07-3.76C57.82,581.18,46,550.31,43.33,517.69c-.38,31-13.44,60.79-36.4,89.56L2.67,615.4l17.42-7.64c-5,10.65-13.6,21-17.42,30.84L1.24,663.94l12.62-4.22c-2.8,4.78-8.8,10.14-12.62,14.9L1.19,719c0-.55,6.14-.25,7.38-.85-1.13,2.08-7.38,3.76-7.38,5.79l.06,382.79,1917.56.55.42-220.4-.53-.79.53-.36.77-232.39C1912.35,660.47,1898.2,668.39,1877.32,672.39ZM115.9,750.81a76.62,76.62,0,0,1-8.32-11.31l2-.59a75.82,75.82,0,0,0,14.74,4A80.33,80.33,0,0,1,115.9,750.81Zm1.87-31.59c-17.85-11.73-29-23.55-37.48-42.4,12.93,10.28,23.1,14.4,35.16,18a151.68,151.68,0,0,1-18,4.55c13.18,4.05,19,3.27,32.58-.34,1.94.56,3.94,1.15,6,1.8A145.4,145.4,0,0,1,117.77,719.22Zm16.52,9.9-1.74-1c1.19-.76,2.39-1.55,3.63-2.4C135.57,726.91,134.93,728,134.29,729.12Zm3.24-30.1c-.75-.46-1.55-.9-2.29-1.36l4.37-1.18C139,697.34,138.21,698.17,137.53,699Zm113.78,27.55c-6.28,4.4-13,8.61-20,12.66-10.55-9.38-19.29-18.79-25.7-28.26Zm-39.74,34.85A180.3,180.3,0,0,0,234.46,769q-5.62,3-11.92,6.29A90.42,90.42,0,0,1,211.57,761.42Zm37.73,35.8a165.49,165.49,0,0,1-22.49-17.66c13.17,1.33,26.38.46,39.67-4.7l2,.22C263.9,782.94,257.36,790.28,249.3,797.22Zm20.5,39.53-.06,0h.08S269.81,836.73,269.8,836.75Zm-15.44-79.16q-12.5-9-22.74-18.05c28.26-9.51,42.18-9.43,63.9-26.69C286.44,733,274.37,745.05,254.36,757.59Zm163.05,74.07-13.94-11.47a87.76,87.76,0,0,0,20.77,8.49C422,829.68,419.72,830.68,417.41,831.66Zm7.41,6.1-.38-.5,52.41.23c.66.06,1.33.27,2,.27Zm65.73,0h-9.16c-.34,0-.66-.31-1-.47l10.45,0C490.76,837.43,490.65,837.76,490.55,837.76Zm151.76-2.09-7.62-5.43c1.72-.41,3.35-.9,5-1.37,2.66.78,5.43,1.49,8.28,2.14Zm-3.4-28.11c-21-12.67-37.4-26.39-47-41.64,24.53,10.08,47.95,13.3,71.1,14.92-6.52-4-12.65-8-18.58-12a174.32,174.32,0,0,0,49.21-14.73C683,773.91,663.73,791.46,638.91,807.56ZM795.14,685.44q-8.08,5.13-17.07,9.91A150.92,150.92,0,0,1,765.63,679C780.12,683.49,787.09,686.07,795.14,685.44Zm-20,38.85a101.48,101.48,0,0,1-6.05-11.44,104.46,104.46,0,0,0,12.28,8.48Q778.33,722.78,775.11,724.29Zm18.4,21.3a90.94,90.94,0,0,1-11.29-11.35,88.71,88.71,0,0,0,21.25-3.56l3.5,1.05A79.09,79.09,0,0,1,793.51,745.59Zm12.79,43c-1.64-1.77-3.21-3.55-4.65-5.37l7.88,0C808.54,785,807.37,786.81,806.3,788.61Zm-9.81-75.07a178.9,178.9,0,0,1-17-16.55c23-6.1,36.2-7.38,55.73-20.79C826.52,692.86,815.08,703.17,796.49,713.54Zm114.14-1.67c18.17,7.47,35.72,11.16,53,13.24a155.74,155.74,0,0,1-22.46,17.59C928,733.1,917.54,722.89,910.63,711.87Zm31.73,113.3a125.87,125.87,0,0,1-12.89-12.81L948.92,817C946.78,819.72,944.61,822.45,942.36,825.17Zm26.87-35.11L943.62,772.7h.26c8.56,0,19,5.42,30.42,7.54C972.69,783.24,971,787.09,969.23,790.06Zm.22-71c-3.71-2.41-7.26-4.82-10.74-7.24a75.92,75.92,0,0,0,19.92-5.57A74.41,74.41,0,0,1,969.45,719.05Zm-25.23-17.83c-17.05-13.18-30.55-26.43-39.59-39.79l47.12,16.07c-3-2-5.91-4.1-8.7-6.21,26.87-8.82,40.63-9.16,61.81-26C993.15,671.2,976.51,683.84,944.22,701.22Zm189.35,59.91c-2.25,1-4.52,2-6.83,3l-13.94-11.48A88.37,88.37,0,0,0,1133.57,761.13Zm9.34,76.63h-6.75c-15-15.3-27.6-22.37-37.06-35.07l62.4,17.51C1155.67,826.18,1149.43,830.11,1142.91,837.76Zm32.9-33.28-42-34.59,52.41-.14c1.53.15,3,.32,4.58.48l-1-.5,10.45,0A210.06,210.06,0,0,1,1175.81,804.48Zm182.36,25.21a193.3,193.3,0,0,1-20.39-14.07l24.56-6.75,14.14,3.36A167,167,0,0,1,1358.17,829.69Zm-14.14-67c1.71-.42,3.35-.91,5-1.38,2.66.79,5.43,1.49,8.27,2.14l-5.66,4.66Zm4.22-22.69c-21-12.66-37.4-26.38-47-41.64,24.54,10.09,48,13.3,71.11,14.92-6.53-4-12.66-8-18.58-12A174.38,174.38,0,0,0,1403,686.58C1392.28,706.35,1373.06,723.91,1348.25,740ZM1514,719.28a76.54,76.54,0,0,1-8.31-11.31c.65-.19,1.3-.38,2-.59a75.16,75.16,0,0,0,14.74,4A80.43,80.43,0,0,1,1514,719.28Zm1.88-31.58c-17.85-11.74-29-23.56-37.48-42.41,12.93,10.28,23.1,14.4,35.16,18.06a150.37,150.37,0,0,1-18,4.54c13.17,4.05,19,3.28,32.58-.34,1.94.57,3.94,1.16,6,1.8A146.14,146.14,0,0,1,1515.88,687.7Zm16.52,9.89-1.74-1c1.19-.76,2.39-1.54,3.63-2.39C1533.68,695.38,1533,696.48,1532.4,697.59Zm3.24-30.09c-.75-.46-1.55-.9-2.29-1.37l4.37-1.18C1537.07,665.82,1536.32,666.64,1535.64,667.5Zm113.78,27.55c-6.28,4.4-13,8.6-20,12.65-10.55-9.37-19.29-18.79-25.7-28.26Zm-39.74,34.84a179.77,179.77,0,0,0,22.89,7.59q-5.64,3-11.93,6.29A90,90,0,0,1,1609.68,729.89Zm39.2,107.87h-13.35c-2.49,0-4.83-4.87-7-7.38l21.86,5.19C1649.9,836.3,1649.37,837.76,1648.88,837.76Zm-1.47-72.07a164.82,164.82,0,0,1-22.5-17.66c13.18,1.34,26.39.46,39.67-4.69l2,.21C1662,751.41,1655.46,758.75,1647.41,765.69Zm20.5,39.53-.06,0h.08Zm-15.44-79.16a290,290,0,0,1-22.74-18c28.26-9.51,42.18-9.43,63.9-26.7C1684.55,701.42,1672.48,713.53,1652.47,726.06Zm163,74.08-13.94-11.48a88.2,88.2,0,0,0,20.77,8.5Q1819,798.66,1815.52,800.14Zm51.3,37.62h-5.58l-38.69-31.84,52.41,0c1.53.16,3,.23,4.58.39-.35-.16-.69-.38-1-.54l10.46,0C1883,816.66,1875.48,822.46,1866.82,837.76Z" transform="translate(-1.13 123.71)"/><polygon class="cls-13" points="1918.05 1083.43 38.48 1083.69 0.06 1083.69 0.06 1230.95 1918.05 1230.95 1918.05 1083.43"/><path class="cls-14" d="M85.86,1005.12c3.84,5.55-4.65,26.79-4.65,28.95s-4.24,37.06-9.35,39.62-25.32,32.94-25.32,32.94H94.29s-3-14.7,6.55-24.09S120,1057.88,127,1048.06s17.24-26.42,17.24-26.42,20.44,18.81,27.47,27.34,10.86,17.51,12.14,23.49,0,24.15,0,24.15l-3.2,10H224.6a146.2,146.2,0,0,1,0-20.25c.79-10.67-6.87-34.05-8.79-43s-.64-19.17-11.49-29S164.71,990,164.71,990l20.44-29.34h-41l-22.84,20.73s-11.5-5.12-22.36-8.53-35.13-12.2-35.13-12.2H2.31s30.82,11.77,46.15,20.73S85.86,1005.12,85.86,1005.12Z" transform="translate(-1.13 123.71)"/><path class="cls-14" d="M258.6,1106.63s8.88-31.94,13.35-36.63,21.75-22.66,25.59-26.08,11.51-20.5,11.51-20.5l9-17.09s-3.19-12.89-2.56-19.72,2.56-26,2.56-26h29.23s2.07,25.43,3.35,31.83-1.91,16.74,0,21,2.56,9,8.94,20.74,14.7,40.18,17.25,45.3,7,27.1,7,27.1H347.24s-10.06-32.63-7.51-44.15-7.66-29-7.66-29-5.11,17.58-7.67,23.13-18.52,10.08-21.08,15.63-8.3,34.36-8.3,34.36Z" transform="translate(-1.13 123.71)"/><path class="cls-14" d="M231.14,961v20.49s15.41,10.29,16.05,15,.92,32.86.28,34.14.62,19.21.62,19.21,12.37-22.19,19.39-33.29,8.34-31.59,8.34-37.14S268.89,960,268.89,960Z" transform="translate(-1.13 123.71)"/><path class="cls-14" d="M410.32,1107s1.4-16.89-1.16-27.56-7.88-25.86-8.52-29.27-6.5-16.78-8.42-21.47-3.94-16.17-3.94-23.73V960.65h31.78s-1.43,38.66,0,41.22,6.54,10.76,11,12.9,7,10.29,7,10.29,14-11.75,22.36-20.16,12.13-25,12.13-28.88V960.65h35.62s-3.68,14.76-4.32,25-8.3,20.58-13.41,27.84-30,29.49-34.49,31.63-14.06,11.57-14.06,12.85v23.42l2,25.61Z" transform="translate(-1.13 123.71)"/><path class="cls-14" d="M472.59,1106.63v-27.8s16.05-23.42,23.08-26.41S524.05,1025.1,526,1023s11-24.75,12.91-28.17,5.82-32.72,9-33.77,35.8,0,35.8,0-1.26,27.37-2.53,32.06,7,20.92,9,21.34,19.8,6.41,23.64,6.41,15.33,15.36,16.61,20.48-8.31,38.84-8.31,38.84,1.28-14.51-3.19-23.9-13.41-24.33-21.08-26-21.08-3-21.08-3-7.66,10.67-16.61,16.22S539,1064,528.17,1066.93s-23.31,15.61-20,17.74,0,22,0,22Z" transform="translate(-1.13 123.71)"/><path class="cls-14" d="M547.33,1106.63s-7.67-12.57,0-19,33.21-29.36,34.49-30.64,1.28,11.81-2.55,19.07,3.32,30.54,3.32,30.54Z" transform="translate(-1.13 123.71)"/><path class="cls-14" d="M621.43,961s-18.53,8.59,0,26.94,28.74,24.33,38.32,32.87,14,35.42,14,39.69-7,21.3-7,21.3l-11.26,24.8h43.83s10.86-39.46,14.06-47.57,10.22-28.07,0-40-36.41-23.43-39-33.25S687.22,960,687.22,960Z" transform="translate(-1.13 123.71)"/><path class="cls-14" d="M737.6,960.65s-10.18,8.88,0,20,40.26,30.13,42.82,38.67,20.45,11.86,1.92,30.64,42.81,49.86,42.81,49.86v7.2s42.32,0,46.92-1.17c2.92-.75-.57-25.24-.57-27.37s-33.08-16.4-35-21.43.07-23.82,3.9-32.78,9-19.63,3.87-24.33-33.84-6.83-38.31-10.67-8.94-14.17-6.38-15,3.25-13.57,3.25-13.57Z" transform="translate(-1.13 123.71)"/><path class="cls-14" d="M921.36,1005.12c3.83,5.55-4.65,26.79-4.65,28.95s-4.24,37.06-9.35,39.62S882,1106.63,882,1106.63h47.75s-3-14.7,6.54-24.09,19.17-24.66,26.19-34.48,17.25-26.42,17.25-26.42,20.44,18.81,27.46,27.34,10.86,17.51,12.14,23.49,0,24.15,0,24.15l-3.19,10h43.92a144.38,144.38,0,0,1,0-20.25c.79-10.67-6.87-34.05-8.79-43s-.64-19.17-11.5-29-39.6-24.4-39.6-24.4l20.44-29.34h-41l-22.84,20.73s-11.49-5.12-22.35-8.53-35.14-12.2-35.14-12.2H837.81s30.81,11.77,46.14,20.73S921.36,1005.12,921.36,1005.12Z" transform="translate(-1.13 123.71)"/><path class="cls-14" d="M1094.1,1106.63s8.87-31.94,13.34-36.63,21.76-22.66,25.59-26.08,11.52-20.5,11.52-20.5l9-17.09s-3.19-12.89-2.55-19.72,2.56-26,2.56-26h29.23s2.07,25.43,3.35,31.83-1.92,16.74,0,21,2.55,9,8.94,20.74,14.69,40.18,17.25,45.3,7,27.1,7,27.1h-36.56s-10.07-32.63-7.51-44.15-7.67-29-7.67-29-5.11,17.58-7.66,23.13-18.53,10.08-21.08,15.63-8.3,34.36-8.3,34.36Z" transform="translate(-1.13 123.71)"/><path class="cls-14" d="M1066.64,961v20.49s15.41,10.29,16,15,.92,32.86.28,34.14.62,19.21.62,19.21,12.36-22.19,19.39-33.29,8.34-31.59,8.34-37.14-6.93-19.45-6.93-19.45Z" transform="translate(-1.13 123.71)"/><path class="cls-14" d="M1245.81,1107s1.4-16.89-1.15-27.56-7.89-25.86-8.53-29.27-6.5-16.78-8.41-21.47-4-16.17-4-23.73V960.65h31.79s-1.44,38.66,0,41.22,6.54,10.76,11,12.9,7,10.29,7,10.29,14.05-11.75,22.35-20.16,12.14-25,12.14-28.88V960.65h35.62s-3.68,14.76-4.32,25-8.3,20.58-13.41,27.84-30,29.49-34.5,31.63-14,11.57-14,12.85v23.42l2,25.61Z" transform="translate(-1.13 123.71)"/><path class="cls-14" d="M1308.09,1106.63v-27.8s16.05-23.42,23.07-26.41,28.39-27.32,30.31-29.45,11-24.75,12.91-28.17,5.82-32.72,9-33.77,35.81,0,35.81,0-1.26,27.37-2.54,32.06,7,20.92,8.95,21.34,19.81,6.41,23.64,6.41,15.33,15.36,16.61,20.48-8.3,38.84-8.3,38.84,1.28-14.51-3.19-23.9-13.42-24.33-21.08-26-21.08-3-21.08-3-7.67,10.67-16.61,16.22-21.08,20.49-31.94,23.47-23.3,15.61-20,17.74,0,22,0,22Z" transform="translate(-1.13 123.71)"/><path class="cls-14" d="M1382.83,1106.63s-7.67-12.57,0-19,33.21-29.36,34.49-30.64,1.28,11.81-2.56,19.07,3.32,30.54,3.32,30.54Z" transform="translate(-1.13 123.71)"/><path class="cls-14" d="M1456.92,961s-18.52,8.59,0,26.94,28.75,24.33,38.33,32.87,14,35.42,14,39.69-7,21.49-7,21.49l-11.36,25.21,43.94-.23s10.86-39.64,14.05-47.75,10.22-28.17,0-40.12-36.41-23.48-39-33.29S1522.71,960,1522.71,960Z" transform="translate(-1.13 123.71)"/><path class="cls-14" d="M1560.89,1106.82s10-28.74,14.8-35.78,9.44-24.46,12.32-30.87,7.59-25,9.51-27.59,8.59-26.59,11.46-28.51,15.3-23.42,15.3-23.42h45.19s4.63,25.43,6.55,36.31,0,64.76,0,64.76l-24-56.85s-17.24,18.5-18.2,42.19S1630,1107,1630,1107Z" transform="translate(-1.13 123.71)"/><path class="cls-14" d="M1565.83,960.65s-16.47,13.26-11.59,18.38,15.42,25.61,15.42,25.61l24.91-44Z" transform="translate(-1.13 123.71)"/><path class="cls-14" d="M1703.1,1107.23s13.16-25.57,22.74-36.46,9.58-26.9,10.54-36.49,2.87-73.14,5.75-73.72,50.78.47,50.78.47-2.88,32.92,0,54.68-6.71,46.1-5.75,55.06,6.29,36.23,6.29,36.23Z" transform="translate(-1.13 123.71)"/><path class="cls-14" d="M1821.52,1106.63s-1-20.21.91-33,3-26.5,6.79-39.41,0-12.81,0-25,1.73-48.7,1.73-48.7l51,.44s-4.79,20.81-4.79,28.49-8.62,27.54,0,36.5,15.36,28.86,21.11,31.08,20.85,13.71,20.85,13.71v36.49s-32-15.25-33.89-25.21-15.52-32.16-15.52-32.16-9.93,27-8,35.34,8.31,21.43,8.31,21.43Z" transform="translate(-1.13 123.71)"/><polygon class="cls-15" points="1918.05 1117.66 0.06 1117.66 0.06 1008.82 1918.05 1008.89 1918.05 1117.66"/><polygon class="cls-16" points="0.06 1117.66 1918.05 1117.66 1918.05 1083.43 0.06 1083.69 0.06 1117.66"/><rect class="cls-13" x="1.92" y="1117.66" width="1915.54" height="10.97"/><path class="cls-13" d="M407,997.15s8.63-4.8,12-5.12,11.5-6.73,12.93-9,1.44-14.72,0-17.28A19.64,19.64,0,0,1,430,960s-6-3.17,3-5.09,15.69-3.84,20.48-7,10.06-12.48,12-13.44,8.31-4.81,8.31-4.81l-6.4,6.73-10.53,15-12.46,4.16-8.62,5.5s4,6.35,4.63,10.19.32,11.2,0,14.4-5.11,9.61-5.11,9.61Z" transform="translate(-1.13 123.71)"/><path class="cls-17" d="M428,960s-1.92-1-1.76-2,1.44-3.42,3.52-3.74,12.29-2.45,14.05-3a45.77,45.77,0,0,0,8.14-4c1.28-1,5.91-5.34,6.55-6.51s4.47-6.19,4.47-6.19l10.71-4.91-9.27,5-4.95,7.9-6.07,5.33s-6.39,3.41-7.82,3.84-8.15,2.56-8.63,2.56-6.54,1.18-6.54,1.18-.16,2.77-.16,3.3a16.75,16.75,0,0,1-.22,1.83Z" transform="translate(-1.13 123.71)"/><polygon class="cls-15" points="428.14 1083.08 430.4 1089.18 431.64 1098.14 430.66 1106.7 422.82 1112.55 425.47 1105.5 425.47 1089.86 424.58 1083.69 428.14 1083.08"/><path class="cls-13" d="M618,885.05l4.11,4.54v4.85s5.51,2.41,6.47,3.26S633,906,633,906l-2.42-9.39-4.64-3v-4.32l-6.11-4.21Z" transform="translate(-1.13 123.71)"/><polygon class="cls-13" points="160.65 1009.07 143.53 1032.83 161.92 1042.12 148.98 1051.73 134.68 1063.24 152.05 1052.61 166.01 1041.95 148.64 1031.83 168.05 1009.03 160.65 1009.07"/><polygon class="cls-17" points="160.65 1009.07 158.52 1009.95 142.17 1033.2 160.65 1042.06 147.46 1052.95 161.92 1042.12 143.53 1032.83 160.65 1009.07"/><path class="cls-13" d="M29.78,995.5c2.39,0,14.45-4.3,19.72-4.3s13.21-.55,18.48.09,10.92-3.08,16.67-.23,12.88,2.54,21,3.82,22.49,2.9,30.15,3.22,36.88.32,50.29-1.92,28.74-6.56,42.63-6.16,18.21-1.73,21.56,0,21.08,7.79,39.76,7.15,52.7-5.44,67.55-5.44,24.82,1.47,39.76,2.08,24.69,2.33,31.27,1.88,17.43-.76,21.35-.44,58.21,1.92,58.21,1.92,18.68-5.19,20-7.82-7.67,2.06,0-5.2,7.66-11.09,10.22-10,1.49,6.19,5.53,9.6-2.38,5.55,8.18,8.11,32.92,5.85,51.44,7.62,83,.37,97.09,0,32.58-3.35,39-5.48,21.07,0,21.07,0,42.8,8.84,56.22,5.48S834.13,994,858.4,994s46,.85,63.88.42,13.94-8.11,38.91-4.26,23,4.69,39.66,6,30,3.35,30,3.35l39.6.88s17.25-3.8,37.69-6.36,38.95-3,48.54-2.56,6.39,2.13,28.11,3.41,48.55,6.28,56.21,4.63,10.22-3.35,21.72-5.48,33.85,4.69,34.49,3.41-1.28-7.68,16.61-7.68,19.16.85,39.6.85,40.8,3.42,45.31,3.42,17.93,7.56,26.23,5.48,33.45-13.59,41-12.31,27.35,3.41,29.27,3.84,20.44,6.4,29.38,6.4,30.3-6.4,49.33-6.4,22.85.43,38.18,0,38.33-2.13,47.27.43,33.21,9.69,36.41,8S1715.62,994,1722,994s35.13-3.42,39.6-3.84S1791,994,1797.38,994s28.74,9.69,38.33,5.48,41.51-16,47.9-12.22a172.52,172.52,0,0,0,16.61,8l18.37-1.28-5,6.18-11.49,4.06H48.3Z" transform="translate(-1.13 123.71)"/><path class="cls-15" d="M2.23,885.11s20-3.84,33.45-3.84H75.13s25.07,2.26,32.73.18,22.68,1.32,28,1.59,17.37,2.26,17.37,2.26-22.57,4.05-39.69,6.19-49.7,4.61-63.75,2S2.23,885.11,2.23,885.11Z" transform="translate(-1.13 123.71)"/><path class="cls-15" d="M175.57,887.84c3.83-2.73,13.42-7.19,25.55-6.88s0,.08,39,0,41.52-1.15,67.07,0,14,2.25,45.35,0,43.43-4.39,59.4-2.68,43.44,9.56,43.44,9.56-23,12.63-71.54,14.77-151.59-2.14-159.15-3.42S175.57,887.84,175.57,887.84Z" transform="translate(-1.13 123.71)"/><path class="cls-15" d="M618.52,885.05a128.23,128.23,0,0,0-21.37-3.78c-10.86-.86-58.76,1.28-65.15,0s-23.79,3.84-23.79,3.84l-34.49,2.13s99.16,7.63,105.55,8.3S618.52,885.05,618.52,885.05Z" transform="translate(-1.13 123.71)"/><path class="cls-15" d="M666,888.31c3-3.2,26-4.26,38.49-7.25s18.21-3,52.7-3.64,47,1.93,68,0,56.53-3.41,75.69-.1,41.2,1.25,54.62,4.52,61.32,0,65.15,3.27-12.46,4.91-21.08,10.46S975,907.52,949,912.64,666,888.31,666,888.31Z" transform="translate(-1.13 123.71)"/><path class="cls-15" d="M1094.1,885.11s-1.59.64,31.94-4.48,42.16-8.6,77.61-5.26,58.45,2.55,97.73,4.22,53.66,5.52,71.86,5.52,63.24-7.83,69-5.52,29.7,14.48,12.46,17.68-140.85,8.32-194.51,8.32S1094.1,885.11,1094.1,885.11Z" transform="translate(-1.13 123.71)"/><path class="cls-15" d="M1532.29,885.11s36.41-3.84,54.62-4.48,54.61-2.57,78.57-3.21,79.52,0,91,3.85,44.07,3.84,54.61,3.84,62.28-8.12,70.9-7.9,37.17,8,37.17,8l-61.12,28.74s-235-6.4-239.18-6.4S1532.29,885.11,1532.29,885.11Z" transform="translate(-1.13 123.71)"/><path class="cls-18" d="M1.19,953H48.3s14.85-2,25.71.19,19.16,3.56,28.1,3.56,31.92-2.09,41.19,0,16.94,3,16.94,3a164.09,164.09,0,0,1-24.43,3.58c-14.53,1.12-24.75-4.1-39.44,0s-49.19-1.94-53-1.52-24.27,1.37-24.27,1.37H1.19Z" transform="translate(-1.13 123.71)"/><path class="cls-18" d="M426.28,960c-4.95-1.25-21.23-4.77-26.5-4.13s-9.59-1.11-34.5-.07-20.6.21-46.47-.34-57.18,2.21-60.21,2.27-34.64,1.09-39.91.9S197.13,960,205.27,960s17.73,2.92,36.89,3.4,48.39,1.49,61.32,1.46,12,0,32.1,0,27.79,1,41.68,0,30.66-1,35.45-1.47S426.28,960,426.28,960Z" transform="translate(-1.13 123.71)"/><path class="cls-18" d="M489.84,960.56c8.62-.58,26.83-3.75,41.2-3.43s12.94,2.45,29.7,1.71,25.87-1.43,47-1.73a495.34,495.34,0,0,0,53.18-3.18c16.29-1.92,60.36,2.15,67.55,3.32s32.09-2,41.68-2S788.78,960,788.78,960s-25.39,3.88-38.8,3.4-35,.48-57.49,0-49.86-3.23-66.61-2.82-31.12,2.66-49.33,2.82-29.7-1.17-42.63.13S489.84,960.56,489.84,960.56Z" transform="translate(-1.13 123.71)"/><path class="cls-18" d="M861,960c5.11-1.46,22.36-7.38,40.24-6.55s46,3.51,69,3.23,33.21.28,62,0,39.44-3.64,57.41-3.23,41.59,4.38,46.07,5.16,17.88,2.44,17.88,2.44-4.47,2-28.1,2.73,1.27,1.16-62.6,2.87-91.6-1.28-113.83,1.71-70.68,2.56-75.2,0S861,960,861,960Z" transform="translate(-1.13 123.71)"/><path class="cls-18" d="M1219.3,960s12.14-8,37.69-6.63,53.66,6.45,80.48,5.6,52.63-.45,80.61-2.36,29.26-2.32,57.37-3.39,54.93-.63,71.54,0,48.54-2,62.59.15,43.44.15,54.94,2.87,68-4.33,72.82,0,54.93-.16,66.43,0,46,3.58,46,3.58-49.83,2.56-61.32,5.12-175-5.23-181.41-3.89-14.13,1.52-53.69,4.41-50.92-2.89-92.51,0-77.37-1.22-100.36.84-45,1-76.17.24S1219.3,960,1219.3,960Z" transform="translate(-1.13 123.71)"/><path class="cls-13" d="M800.12,917.79l-18.37,11,27.71,13.83,2.36,17.29,9.08,10.46S819,989,817.53,989.24s-19.16,4.22-19.16,4.22,13.88,3,17.24,3h26s-10.7-6.07-11.18-7.45-3.35-8.68-2.88-12.19,1.92-4.41.48-6.5-9.58-11-9.58-11,2.4-3.08,8.63-6,20.12-7.73,23.47-9,4.79-7,5.75-8S898,926.4,898,926.4l-45,7s-2.88,4.81-4.32,6.09-24.43,10.88-24.43,10.88l-5.75,2.94-5.75-13.82-24-11.21Z" transform="translate(-1.13 123.71)"/><path class="cls-13" d="M1153.51,994c3.19-2.56,15.65-12.17,18.52-14.73s2.4-7.36,0-8.8-3.35-10.45-3.35-10.45l-12-20.44S1193.11,929.6,1197,928s35-15.36,35-15.36l-27.31,16-36.89,12.49L1178.26,960s4.85,7.73,5.3,10.45,2.85,10.72,1.41,14.56-4.79,12.17-4.79,12.17Z" transform="translate(-1.13 123.71)"/><path class="cls-13" d="M1452.84,886.39s4.23,6.16,8,7.44,9.74,4.39,5.15,8.23-13.14,12.86-13.14,12.86L1470,901.3s1.43-3.14,0-4.42-5-3.14-6.23-3.94-3.52-6.55-3.52-6.55Z" transform="translate(-1.13 123.71)"/><path class="cls-13" d="M1639.29,992.38c1.92-.64,9.9-8.21,9.9-9.41V961a18.23,18.23,0,0,0-4.71-4.86c-2.55-1.53-10-2.28-11.86-3.7s-9-4-9-4,18.27-11.84,17.31-13.12-27.75-7.69-27.75-7.69l-3.33-10.88,6.23,7.68,34.19,9.61s-16,11.52-16,12.48,16.17,8.26,16.17,8.26l8.75,5.14a7.73,7.73,0,0,0,0,6.13c1.43,3.2-1.92,16.8,0,18.08s6.23,9.77,6.23,9.77h-19Z" transform="translate(-1.13 123.71)"/><polygon class="cls-17" points="615.31 1008.21 620.93 1013.3 620.93 1018.16 627.4 1021.41 631.83 1029.74 624.86 1021.84 617.1 1018.75 617.1 1013.04 615.31 1008.21"/><polygon class="cls-17" points="798.99 1041.5 780.62 1052.53 808.33 1066.37 810.68 1083.66 819.77 1094.12 816.4 1112.95 817.59 1094.14 806.57 1083.69 805.85 1067.88 777.11 1051.88 798.99 1041.5"/><polygon class="cls-17" points="888.65 1051.4 851.84 1057.16 847.53 1063.24 825.99 1072.91 844.5 1062.16 849.45 1055.24 888.65 1051.4"/><path class="cls-17" d="M1231.92,912.64,1197,928l-40.25,11.53,12,20.44s1.27,6.73,1.56,7.5,3.46,5.21,3.46,5.21l-.92,5.69-8,6.71,4.36-8.12,1-5.63-3.19-3.86-1-7.49-12.46-21.52,41.84-11.52Z" transform="translate(-1.13 123.71)"/><path class="cls-17" d="M1449.89,884.2v2.56l7.94,5.88c.22.16,7.51,3.73,7.51,3.73l2.11,2.58a5.12,5.12,0,0,1-.84,2.54c-.7.66-12.9,12.54-12.9,12.54s11.86-12.61,11.86-13.16,0-3-1.31-3.92-6.58-3.36-7.06-3.68-8.59-6.51-8.59-6.51Z" transform="translate(-1.13 123.71)"/><polygon class="cls-17" points="1608.77 1040.51 1612.13 1051.4 1639.47 1059.08 1638.98 1060.26 1622.56 1072.2 1634.4 1077.24 1619.29 1073.16 1634.23 1059.72 1607.02 1052.2 1608.77 1040.51"/></svg>