<svg id="Layer_1" data-name="Layer 1" xmlns="http://www.w3.org/2000/svg" viewBox="0 0 595.28 211.8"><defs><style>.cls-1{fill:#fff;fill-rule:evenodd;}</style></defs><path class="cls-1" d="M26.44,13.25h542.4a14,14,0,0,1,13.86,14.1V70.84H514.82c-3.57-39.39-182.32-47.78-213.21-48-49.8-.38-221.32,11.34-221.32,47.24v.77H12.58V27.35A14,14,0,0,1,26.44,13.25Z"/><path class="cls-1" d="M80.25,135.22H12.58V76.75h67.7c-.06,18.32-.3,40.78,0,58.47ZM582.7,76.75v58.47H515c.54-18.28-.66-40-.23-58.47Z"/><path class="cls-1" d="M582.7,141.13v43.32a14,14,0,0,1-13.86,14.09H26.44a14,14,0,0,1-13.86-14.09V141.13H80.7c8.37,35.39,148.86,49.29,219.14,49.69,39.6.22,204.42-12.37,214.53-49.69Z"/><path class="cls-1" d="M300.77,33.16c38.6.35,204,17.16,202.44,38-1.27,17.51,1.32,51.47,0,69-1.53,20.29-165,38-203.49,37.72-41.48-.35-207.09-14.08-207.77-39.6-.46-17.55,0-47.62,0-65.18,0-26,166.7-40.34,208.82-39.95Zm-.18,16h0c-39.77-.3-197.16,9.3-197.16,29.59,0,13.68-.43,40.7,0,54.37.64,20.4,157,28.53,196.18,28.8,36.33.25,190.69-11.53,192.14-27.34,1.24-13.64-1.21-43.17,0-56.82C493.18,61.49,337.05,49.42,300.59,49.14Z"/><path class="cls-1" d="M234.87,107.78c2,.92,1.64,5.84-.87,11s-6.2,8.54-8.23,7.62-1.65-5.84.86-11,6.2-8.54,8.24-7.63Zm137.59.45h0c2,.91,1.64,5.83-.87,11s-6.2,8.54-8.23,7.62-1.65-5.83.86-11,6.2-8.54,8.24-7.62ZM440,106.79h0c1.11.84.1,4-2.24,7.15s-5.15,4.94-6.26,4.1-.11-4.05,2.23-7.15,5.16-4.94,6.27-4.1Zm1.42-6.63h0c-7.72-.59-12.89,4.77-15.6,10.06a21.55,21.55,0,0,0-1.25,15.26,20.56,20.56,0,0,1-9.43,4.24,2.7,2.7,0,0,1-3.38-2.75,41.4,41.4,0,0,1,1.79-12.17c.51-1.69,2.27-1.11,2.87-2.55,1.23-3,1.38-5.87-2.56-5.4-2.53.31-5.27.69-5.36-2.73s4-5.12,3.37-5.41c-2.25-1.08-4.15,0-6.5-.85-.66-.23-.12-1.73-.78-2-.9-.3-2.48.65-3,1.44-1.14,1.74-1,3.34-1.89,5.4a31.5,31.5,0,0,0-1.17,5.47c-1.23,3.6-9,14.72-14.72,17.63-3.21,1.63-5.23.19-4.24-3.16,1.33-4.48,5.73-15.38,8.6-23.07-2.8.07-5.29.29-8.09.35-.33,1-.81,1.64-1.13,2.62-6.28-4-10.1-2.48-15.8,1.62a28.38,28.38,0,0,0-10,13.2,21.19,21.19,0,0,0-1.29,6.5c-3.47,1.25-6.91,3.11-10,2.65-.75-.11-1.27-1.27-1.09-2,1-4.47,3.22-8.6,4.57-13,.85-2.76,2.54-5.58,2-8.42-.7-3.81-5.57-3.93-8.23-2.56-2.25,1.17-4,3.22-6.22,4.39a1.4,1.4,0,0,1-1.46-.36c-1-.88-1.43-2.22-2.38-3.11a6.45,6.45,0,0,0-2.93-1.83,7.38,7.38,0,0,0-4.21.36c-2.75,1.15-4.72,4.28-7.68,4.58-1.29.13-.46-2.67-1.28-3.66-2-2.4-3.89-1.56-6.22-.55-4.8,2.08-9.54,4.3-14.3,6.45a21.52,21.52,0,0,1,1.19,3c1.9-.65,3.86-1.48,5.79-1.95.89-.22,2-.67,2.75-.18a2.24,2.24,0,0,1,.72,2.38c-2.6,8.38-6.09,16.46-9.14,24.69l9.51-.18c2.87-7.38,4.87-15.16,8.6-22.14.67-1.25,2.63-1.74,4-1.46,1,.19,1.3,1.59,1.47,2.56a7.49,7.49,0,0,1-.37,3.66c-2,5.89-4.51,11.59-6.76,17.38,3.47-.06,7.13.25,10.6.18,3.36-7.68,4.68-15.56,8.79-22.86.51-.91,3.2-1.21,4.2-.92.67.2,1.43,1,1.29,1.65-.89,4.11-3.16,7.82-4.21,11.89a11.45,11.45,0,0,0-.37,5.85,6.4,6.4,0,0,0,3.11,3.85,5.33,5.33,0,0,0,4.21-.19c4.92-2,9.49-4.85,14.2-7.35.83,5.29,4.63,8.92,11.87,7.31,2.53-.56,3.91-2.21,6.26-3.32,1.18,3.79,3.8,5.34,8,3.61,10.39-4.26,16.48-11.68,24.16-22.8,1.24.27,3.69-.43,4.92-.41-1.32,4-9.51,18.29-.95,22.59,2.39,1.2,4.22.81,6.86.33a25.59,25.59,0,0,0,12.41-5.94,11.76,11.76,0,0,0,7.1,6.12c6.82,2.09,14.61-1.52,19.48-3.67,2.6,4.48,9.28,5.31,13.2,3.88a35.86,35.86,0,0,0,11.14-7,2.09,2.09,0,0,0-.08-2.74c-.64-.56-1.71.44-2.39,1-2.85,2.12-8.56,7.49-11.77,3-1.44-2-.48-5.42.94-9.29s2.73-8.63,4.09-12.41c1.95-.16,4.13,0,6.07-.11.84-2.37,1.2-4.24,2-6.61-1.31-.1-3.11,0-4.42-.07,1.21-6.32,3.82-12.76,6-19.09-3,.06-5.48.24-8.46.3-2.09,6.15-3.74,12.17-6.59,18.32-2,.06-4,.24-6,.3-.52,2.29-1,4.59-1.55,6.89,1.49-.06,3.59-.12,5.07-.17-1.89,7.21-3.95,13.72-8.17,19.3a10.87,10.87,0,0,1-6.54,3.62c-7.46,1.53-10.34-.88-11.52-4.27,3.15-2.64,6.28-3.89,9.12-6.86,4.58-4.79,10.19-17.41-1-18.26ZM181.92,72.08h0c-11.86,1.36-29.42,2.66-39.45,9.27-5.9,3.88-11.2,11.34-5.9,18.94,5.18,7.42,14.43,4.27,18.17-.66-4.28-.56-7.7-1.36-8-4.43-1.23-13.94,11.52-11.06,23.74-15-6.35,15-12.06,41.78-28.23,45.08-11.76,2.41-17.16-2.79-19.9-10.11-6.52,12.54,2.8,18.26,11.16,19.56,7.74,1.19,17.64-3.64,23.11-9.36a84.61,84.61,0,0,0,11.24-8.65c.92-.86,13.81-10.72,12.62-2.56-1.05,7.2-3.9,12.44-6,19.39l9.52.19c2.32-6.89,4-14,6.95-20.68a4.14,4.14,0,0,1,3.11-2.19c1.17-.17,2.87.18,3.29,1.28.76,1.93-.32,4.38-.86,6.38-.9,3.27-5.83,13.92.58,14.74s13.38-3.71,17.11-6.74a9.62,9.62,0,0,0,5.53,7.51c2.29,1.09,5.14.39,7.62-.17,2-.47,3.66-1.89,5.49-2.84-.33,4.6,4.06,4,7,2.66,6.64-3.15,10.35-5.37,14.88-6.88a20.58,20.58,0,0,1-1.24-2.54c-3.27.83-6.48,2.41-9.82,2.15-1.12-.08-1.42-2.12-1.06-3.19,4.68-14,10.63-27.64,15.95-41.46-2.78.17-4.91.17-7.69.35-2.18,5.91-5,12-7.2,17.9-10.43-1.91-20.14,1-26.94,14a23.34,23.34,0,0,0-2.66,9.14c-2.37,1.55-4.57,3.14-7.35,3.84-1,.26-1.82-1.36-1.64-2.41a63.6,63.6,0,0,1,3-10.2c.8-2.28,3.78-8.95,2.68-11.21-1.9-3.91-4.69-3.89-7.52-2.72-3.64,1.49-7.34,4.87-9.31,4.19-2.9-1-2.08-5.48-6.44-5a12.58,12.58,0,0,0-4,1.32c-6.22,3.07-12.13,7.46-18.07,11.24C171.09,101.22,176.5,86.6,181.92,72.08Z"/><path class="cls-1" d="M273.24,94.81h0a21.32,21.32,0,0,1,15.1,6.27h0a21.27,21.27,0,0,1,6.27,15.08h0a21.3,21.3,0,0,1-6.27,15.1h0a21.29,21.29,0,0,1-15.08,6.27h0a21.41,21.41,0,0,1-21.36-21.36h0a21.41,21.41,0,0,1,21.36-21.37Zm0,2.61h0a18.8,18.8,0,0,0-18.76,18.76h0a18.8,18.8,0,0,0,18.76,18.75h0a18.65,18.65,0,0,0,13.24-5.5h0A18.71,18.71,0,0,0,292,116.18h0a18.74,18.74,0,0,0-5.5-13.25h0A18.66,18.66,0,0,0,273.24,97.42Z"/><path class="cls-1" d="M273.24,100a16.17,16.17,0,1,1-16.17,16.17A16.17,16.17,0,0,1,273.24,100Zm0,3.33a12.84,12.84,0,1,0,12.84,12.84A12.84,12.84,0,0,0,273.24,103.34Z"/><path class="cls-1" d="M273.24,106.49a9.69,9.69,0,1,1-9.69,9.69A9.69,9.69,0,0,1,273.24,106.49Z"/></svg>